<?xml version="1.0" standalone="no"?>
<!DOCTYPE svg PUBLIC "-//W3C//DTD SVG 20010904//EN"
 "http://www.w3.org/TR/2001/REC-SVG-20010904/DTD/svg10.dtd">
<svg version="1.0" xmlns="http://www.w3.org/2000/svg"
 width="840.000000pt" height="589.000000pt" viewBox="0 0 840.000000 589.000000"
 preserveAspectRatio="xMidYMid meet">

<g transform="translate(0.000000,589.000000) scale(0.100000,-0.100000)"
fill="#000000" stroke="none">
<path d="M5935 5471 c-27 -10 -63 -25 -80 -33 -16 -8 -60 -18 -96 -21 -81 -7
-118 -23 -125 -54 -4 -13 -1 -59 6 -101 12 -73 12 -83 -8 -142 -12 -35 -22
-82 -22 -104 -1 -23 -8 -59 -16 -81 -27 -71 -28 -81 -2 -99 129 -92 195 -116
312 -116 36 0 76 -6 91 -14 29 -15 49 -12 78 12 15 14 19 13 40 -6 40 -37 85
-29 159 31 42 33 112 46 148 27 13 -7 37 -43 56 -86 25 -53 40 -74 53 -74 14
0 21 -12 30 -57 39 -202 51 -395 35 -564 l-7 -65 -81 24 c-60 18 -107 25 -181
26 -90 1 -105 -2 -156 -27 -31 -15 -86 -54 -122 -88 l-67 -61 -57 23 c-51 20
-76 23 -198 24 -119 0 -151 -3 -215 -23 -164 -52 -255 -113 -359 -241 -40 -50
-75 -91 -78 -91 -3 0 -27 16 -54 36 -60 44 -221 126 -282 144 l-46 14 -7 85
c-15 177 -12 213 21 256 26 35 29 48 33 125 5 101 -6 135 -43 126 -21 -5 -23
-2 -30 47 -3 28 -6 124 -6 212 2 207 -11 307 -43 350 -52 68 -212 152 -336
176 -36 7 -73 21 -83 31 -24 25 -91 24 -116 -1 -10 -10 -38 -22 -62 -26 -125
-21 -276 -88 -347 -153 -26 -24 -44 -52 -51 -79 -16 -58 -30 -267 -31 -435 l0
-137 -37 -3 -38 -3 -8 -99 -8 -98 42 -69 42 -70 -12 -107 c-23 -209 -18 -192
-61 -192 -65 0 -141 -19 -224 -56 -45 -19 -86 -38 -93 -40 -6 -3 -18 8 -27 24
-29 57 -106 141 -166 180 -165 111 -356 127 -588 50 l-93 -31 -57 55 c-64 63
-113 90 -190 107 -62 13 -211 14 -263 2 l-36 -8 -6 96 c-14 212 -20 409 -13
454 5 34 13 50 27 55 18 7 54 53 121 155 17 26 35 44 38 40 4 -4 15 -32 25
-60 29 -91 52 -95 175 -33 48 25 79 33 118 34 41 1 57 6 68 20 13 18 15 18 32
3 24 -22 47 -21 102 4 31 14 68 22 116 23 42 0 77 6 87 14 9 8 23 37 33 65 9
29 30 73 46 100 l30 47 -17 88 c-16 86 -16 215 0 305 7 34 4 40 -30 72 -28 27
-45 35 -74 35 -21 0 -80 9 -132 20 -166 35 -401 22 -649 -34 -58 -13 -118 -22
-133 -19 -29 6 -109 -35 -234 -119 -49 -32 -73 -55 -73 -68 0 -12 -22 -35 -57
-62 -171 -125 -407 -330 -473 -409 -207 -249 -543 -903 -646 -1258 -57 -196
-71 -433 -30 -511 30 -55 206 -227 256 -249 25 -11 73 -23 107 -26 l61 -7 46
-67 c60 -88 145 -181 206 -226 106 -78 376 -178 565 -210 78 -13 331 -35 406
-35 25 0 26 -3 43 -106 66 -407 272 -752 588 -987 l104 -77 24 -98 c68 -285
113 -409 180 -498 27 -36 37 -58 33 -73 -3 -11 -1 -21 5 -21 6 0 14 15 17 33
4 17 14 45 22 60 8 16 12 32 8 35 -7 7 -31 -20 -38 -42 -12 -36 -91 97 -130
219 -39 120 -87 305 -79 305 4 0 45 -12 91 -25 121 -36 121 -35 120 28 0 28
-3 82 -8 120 -13 118 17 119 68 1 19 -44 41 -88 50 -98 36 -43 221 -139 237
-123 3 3 -3 18 -14 34 -40 56 -113 265 -98 281 5 4 177 -16 183 -22 1 -1 -9
-42 -22 -91 -35 -127 -36 -125 29 -125 l55 0 11 -58 c6 -31 40 -116 75 -188
l65 -131 -50 -83 c-28 -46 -50 -94 -50 -107 l0 -23 174 0 c155 0 179 2 208 19
44 26 118 42 196 43 66 0 92 -12 92 -43 0 -17 8 -19 65 -19 48 0 65 4 65 13 0
34 35 47 126 47 93 -1 161 -18 176 -44 8 -14 52 -16 350 -16 297 0 339 2 334
15 -3 8 -17 52 -31 99 l-27 83 85 209 c47 115 92 225 101 245 12 30 26 41 87
67 40 18 73 31 74 30 2 -2 -3 -39 -10 -83 -25 -151 -71 -297 -136 -427 -28
-55 -49 -80 -49 -59 0 6 -6 11 -14 11 -12 0 -12 -7 4 -42 10 -24 24 -65 31
-93 12 -50 29 -82 29 -55 0 7 -7 42 -16 77 l-16 63 51 103 c61 124 95 227 122
372 12 61 23 119 26 130 2 11 81 83 175 160 94 77 217 184 273 238 122 116
151 165 270 467 42 107 88 216 102 242 44 81 50 84 213 96 249 19 411 79 508
190 61 70 102 93 302 178 113 47 117 50 215 150 99 101 102 103 279 193 307
157 363 205 359 311 -3 68 -69 382 -119 565 -127 462 -342 830 -624 1070 -102
87 -306 240 -439 330 -56 37 -107 77 -112 87 -13 23 -121 75 -227 109 -70 22
-75 23 -102 7 -27 -15 -35 -15 -117 3 -142 31 -371 69 -416 69 -23 -1 -64 -9
-92 -19z m185 -6 c54 -6 353 -62 378 -70 9 -4 4 -18 -18 -50 -50 -72 -78 -147
-101 -265 l-22 -110 -35 31 c-92 81 -235 146 -290 133 -15 -4 -70 -24 -122
-46 -114 -46 -117 -44 -131 68 -6 43 -12 80 -14 83 -7 7 -53 -101 -60 -141 -6
-30 -3 -40 14 -54 26 -23 26 -31 1 -39 -11 -4 -31 -23 -45 -42 l-24 -36 -11
27 c-15 41 -12 93 10 171 20 67 20 73 5 142 -9 40 -14 81 -10 92 7 24 45 38
120 44 34 3 86 17 120 32 64 29 127 44 160 39 11 -1 45 -6 75 -9z m-3597 -40
c32 -8 80 -15 106 -15 41 0 53 -5 84 -35 21 -20 37 -41 37 -48 0 -19 -39 -77
-55 -84 -9 -3 -24 -22 -35 -43 -11 -21 -47 -72 -80 -115 l-62 -77 -228 7 -227
8 -57 -69 c-31 -37 -56 -72 -56 -76 0 -4 -4 -8 -10 -8 -5 0 -10 17 -10 38 0
120 -57 316 -119 407 -22 32 -29 50 -21 55 18 11 210 50 322 65 125 17 329 12
411 -10z m4340 -142 c50 -25 220 -141 357 -243 328 -244 481 -417 629 -710 75
-148 142 -318 190 -480 44 -151 121 -503 128 -586 5 -69 5 -71 -27 -107 -18
-21 -46 -47 -63 -59 l-30 -22 6 25 c4 13 14 68 23 123 l16 98 -25 67 c-15 36
-35 112 -47 168 -26 129 -69 252 -131 373 -50 98 -87 156 -74 116 21 -69 47
-215 52 -297 5 -84 2 -116 -27 -250 -21 -98 -39 -159 -49 -167 -14 -11 -14
-14 -1 -23 13 -8 13 -11 -2 -23 -10 -7 -18 -16 -18 -20 0 -5 -10 -16 -22 -27
-19 -15 -20 -20 -9 -28 11 -7 10 -11 -7 -20 -12 -6 -19 -17 -16 -25 3 -7 -2
-16 -10 -19 -9 -4 -16 -13 -16 -22 0 -12 -17 -15 -105 -15 -58 0 -105 1 -105
3 0 2 16 21 36 43 71 77 147 187 150 217 4 30 4 30 -16 12 -11 -10 -22 -16
-24 -14 -3 3 -9 33 -15 67 -6 35 -31 114 -57 175 -25 62 -63 166 -84 232 -74
238 -131 353 -223 452 -33 35 -62 62 -64 60 -2 -2 6 -26 17 -52 37 -85 52
-212 48 -399 l-3 -171 -49 -95 c-54 -107 -143 -255 -224 -378 -36 -55 -63 -84
-79 -88 -51 -13 -234 141 -278 232 -10 21 -22 74 -26 117 -8 83 3 274 19 317
5 14 12 38 16 54 7 27 6 28 -9 16 -15 -12 -16 -10 -10 21 4 19 7 114 8 210 1
178 -21 364 -57 483 -14 47 -14 54 15 165 71 276 148 446 223 492 37 23 30 23
69 2z m-5304 -142 c68 -68 134 -232 185 -461 22 -100 22 -107 7 -160 -12 -44
-15 -88 -11 -215 3 -88 5 -286 5 -440 -1 -377 3 -366 -172 -575 -81 -96 -92
-106 -143 -122 -30 -9 -82 -17 -116 -17 -55 -1 -63 2 -91 32 -43 44 -97 161
-130 282 -24 88 -27 117 -27 245 1 113 6 167 23 244 31 136 83 281 146 409 29
59 49 107 45 107 -15 0 -163 -164 -230 -255 -37 -50 -95 -143 -129 -207 -35
-65 -67 -120 -72 -124 -5 -3 -9 -13 -9 -22 0 -9 -18 -64 -40 -122 -81 -211
-107 -339 -128 -644 -7 -99 -7 -100 -39 -118 -29 -17 -34 -18 -67 -4 l-36 15
0 105 c0 101 -11 143 -24 91 -4 -14 -10 -25 -15 -25 -11 0 -31 176 -38 353 -3
81 -9 147 -13 147 -7 0 -33 -112 -67 -295 -13 -64 -18 -143 -18 -273 0 -142
-3 -182 -13 -182 -19 0 -86 36 -101 54 -36 43 -31 264 9 434 74 311 389 957
613 1258 90 121 258 274 497 453 116 87 140 91 199 32z m2693 -92 c29 -6 54
-13 56 -14 2 -2 -2 -13 -8 -25 -11 -21 -11 -21 14 -5 20 13 29 14 48 4 49 -25
157 -121 171 -152 20 -43 32 -137 18 -137 -6 0 -37 13 -68 30 -103 53 -168 65
-363 64 -163 0 -181 -2 -257 -27 -45 -15 -105 -43 -134 -63 l-52 -35 7 71 c11
122 26 140 189 240 82 49 266 73 379 49z m-132 -409 c0 -51 -6 -60 -28 -38 -9
9 -12 7 -12 -10 0 -13 -6 -25 -13 -28 -7 -2 -57 14 -111 36 -105 44 -118 44
-168 2 -17 -15 -29 -20 -26 -12 7 22 94 82 131 90 18 5 76 8 130 9 l97 1 0
-50z m168 3 c7 -9 11 -22 9 -28 -4 -11 -76 -55 -92 -55 -6 0 -9 23 -7 56 l4
56 36 -6 c21 -3 43 -13 50 -23z m-451 -136 c54 -109 66 -117 128 -91 18 7 19
6 6 -9 -25 -31 -6 -27 39 9 66 53 109 77 125 70 11 -4 15 -22 15 -72 l0 -66
-32 4 c-18 3 -41 8 -50 12 -13 6 -30 -5 -65 -38 -45 -44 -47 -47 -28 -58 11
-6 38 -30 60 -52 l40 -41 -129 -7 c-72 -4 -132 -5 -134 -3 -3 2 3 16 12 31 10
14 15 28 13 31 -3 2 -31 -8 -62 -23 l-57 -27 -24 29 c-34 42 -39 69 -26 166 7
60 19 103 37 135 24 44 29 48 66 50 38 1 41 -1 66 -50z m883 -343 c0 -87 -2
-98 -26 -129 -14 -19 -33 -60 -43 -91 -19 -66 -41 -83 -41 -33 0 18 16 65 35
106 19 41 35 89 35 108 0 25 5 35 15 35 13 0 14 4 5 21 -11 20 -13 19 -59 -23
l-48 -43 -4 -167 c-4 -149 -6 -170 -25 -194 -18 -25 -127 -94 -148 -94 -4 0 8
18 27 40 73 79 97 163 97 329 l0 94 68 69 c43 42 77 68 90 68 21 0 22 -4 22
-96z m-1113 44 c56 -59 62 -75 72 -175 5 -49 16 -105 25 -125 9 -21 16 -47 16
-58 0 -26 52 -80 76 -80 16 0 15 2 -3 23 -49 52 -63 90 -63 162 l1 70 27 -31
c15 -17 35 -36 45 -43 16 -13 16 -11 2 22 -8 20 -15 51 -15 68 l0 32 58 -55
c60 -57 115 -91 167 -101 23 -5 19 -1 -15 14 -58 26 -112 68 -107 82 2 7 21
15 43 18 l39 6 -47 2 c-48 1 -48 1 -48 36 0 25 6 37 21 46 25 13 319 25 372
15 l37 -7 0 -65 c0 -63 -1 -65 -46 -111 l-46 -46 31 6 c42 9 41 -12 -3 -51
-40 -35 -104 -47 -211 -40 -48 3 -73 10 -96 27 -29 21 -31 22 -25 5 4 -10 10
-31 13 -46 3 -16 6 -28 7 -28 0 0 19 7 41 15 112 40 221 -9 201 -90 -9 -35
-50 -51 -151 -59 -109 -10 -218 7 -274 42 -66 40 -84 71 -89 148 -4 62 -5 64
-23 49 -17 -16 -19 -14 -40 27 -12 23 -37 69 -56 100 -34 55 -35 58 -24 108 6
28 11 69 11 90 0 54 23 53 77 -2z m2674 -295 c-45 -54 -93 -145 -111 -213 -15
-52 -19 -221 -7 -297 l8 -53 -55 0 c-70 0 -103 13 -109 42 -4 20 -4 20 -6 -4
-1 -30 -21 -37 -39 -15 -5 6 -14 37 -20 67 l-10 55 -1 -52 c0 -29 -5 -53 -9
-53 -18 0 -41 37 -51 81 -21 93 44 223 183 363 82 83 158 126 224 126 l43 0
-40 -47z m138 41 c17 -4 31 -11 31 -16 0 -5 -18 -31 -40 -59 -52 -66 -107
-180 -122 -252 -10 -47 -9 -74 4 -150 8 -50 12 -95 8 -100 -3 -4 -29 -10 -57
-14 l-51 -6 -9 59 c-12 84 -9 200 6 264 17 71 70 172 122 233 41 48 52 52 108
41z m115 -30 l48 -17 -5 -46 c-4 -25 -12 -100 -18 -166 -11 -110 -15 -124 -46
-172 -41 -62 -90 -108 -140 -128 -46 -19 -48 -16 -63 93 -15 102 -6 155 44
258 28 58 119 194 129 194 2 0 25 -7 51 -16z m-4673 -97 c109 -215 156 -443
105 -512 -11 -16 -18 -17 -65 -5 -49 12 -167 87 -177 114 -2 6 5 47 16 91 14
54 23 128 27 227 6 139 7 147 27 151 30 5 33 2 67 -66z m132 -27 c89 -175 122
-326 98 -442 l-12 -58 -46 0 c-42 0 -45 2 -39 23 33 116 2 267 -97 480 l-46
98 47 -3 47 -3 48 -95z m165 59 c84 -41 167 -139 211 -249 47 -119 41 -169
-31 -237 -43 -42 -88 -59 -172 -68 -65 -7 -69 -7 -61 11 5 11 10 60 13 110 5
115 -18 203 -94 363 l-54 114 62 -7 c39 -4 87 -18 126 -37z m3648 -30 c71 -10
154 -34 154 -46 0 -2 -29 -48 -65 -102 l-65 -97 -77 -12 c-90 -14 -214 -71
-382 -177 -57 -36 -114 -65 -126 -65 -12 0 -53 11 -89 25 -37 14 -80 25 -96
25 l-30 0 17 28 c47 74 159 215 202 254 108 98 259 154 468 177 6 0 46 -4 89
-10z m-3008 -35 c211 -43 354 -192 451 -469 20 -57 28 -125 15 -125 -4 0 -28
20 -53 43 -44 42 -51 44 -121 50 -66 6 -243 -3 -397 -19 -52 -6 -52 -6 -108
47 -67 63 -90 100 -99 157 -8 56 -33 104 -96 185 -27 37 -46 68 -42 71 25 15
130 49 189 61 93 18 170 18 261 -1z m848 -49 c62 -51 91 -119 104 -240 6 -55
13 -108 16 -117 12 -41 -89 -1 -175 70 l-43 35 6 56 c20 172 30 231 39 231 5
0 29 -16 53 -35z m-109 -167 c-4 -13 -9 -54 -13 -92 l-7 -68 -33 5 c-19 3 -34
2 -34 -4 0 -5 -7 -9 -15 -9 -26 0 -95 -24 -95 -34 0 -4 -7 -6 -15 -2 -9 3 -19
-3 -26 -15 -5 -11 -15 -19 -20 -17 -5 2 -25 38 -43 80 l-34 78 32 19 c26 15
101 47 176 74 8 3 41 6 74 6 55 1 58 0 53 -21z m1355 -2 c45 -16 168 -95 168
-107 0 -16 -18 -10 -62 20 -24 15 -72 41 -108 56 -36 16 -69 32 -74 37 -15 13
35 9 76 -6z m-1184 -212 c43 -17 58 -29 63 -48 9 -34 0 -33 -86 9 -64 32 -145
96 -145 114 0 22 18 17 62 -16 27 -20 75 -46 106 -59z m271 -19 c50 -44 91
-83 91 -86 0 -9 -82 7 -161 31 l-66 20 -7 46 c-3 26 -6 60 -6 76 l0 30 29 -19
c16 -10 70 -54 120 -98z m-257 -62 c58 -21 61 -26 83 -143 24 -122 93 -406
109 -443 7 -18 16 -44 20 -59 l6 -28 -174 0 c-170 0 -174 0 -179 -22 l-6 -21
-21 24 c-24 27 -24 25 13 -70 19 -49 22 -52 31 -32 6 15 6 28 0 39 -6 9 -8 28
-4 42 5 22 11 25 55 25 49 0 50 -1 48 -29 -1 -15 -9 -33 -16 -40 -8 -6 -18
-33 -22 -61 -17 -129 -24 -144 -63 -155 -20 -5 -40 -10 -44 -10 -4 0 -23 30
-41 67 l-34 67 -7 -39 c-5 -26 -4 -40 5 -45 7 -5 9 -20 5 -42 -6 -31 -11 -36
-59 -51 -30 -9 -58 -17 -64 -17 -16 0 -2 64 17 80 19 16 64 190 49 190 -11 0
-12 60 -1 76 4 7 18 14 32 17 22 4 21 4 -6 6 -18 0 -37 -6 -46 -16 -21 -25
-39 -124 -26 -140 6 -7 7 -20 4 -29 -5 -14 -14 -11 -64 17 -31 17 -68 39 -82
48 -31 20 -26 13 53 -92 55 -73 58 -80 43 -96 -9 -10 -16 -25 -16 -34 0 -40
-24 -19 -95 85 -86 125 -162 223 -243 311 -49 54 -112 142 -112 157 0 11 122
80 140 80 10 0 20 7 24 15 4 11 21 15 60 15 46 0 56 3 61 20 9 27 48 52 92 59
l36 6 3 59 c5 97 9 101 51 56 19 -22 76 -63 127 -92 115 -66 238 -146 318
-208 35 -27 65 -47 67 -44 3 2 -11 21 -31 42 -29 30 -38 50 -47 102 -28 154
-57 274 -67 277 -6 2 -16 -22 -24 -54 -14 -64 -45 -136 -64 -153 -10 -7 -20
-4 -40 11 -29 23 -34 60 -11 79 11 9 12 16 4 26 -10 12 -28 159 -29 236 l0 36
65 -44 c36 -24 89 -51 117 -61z m848 71 c0 -17 -25 -46 -51 -60 -30 -15 -31
-15 -24 8 4 13 8 23 9 24 0 0 12 8 26 17 25 17 40 21 40 11z m-573 -106 c93
-20 153 -48 153 -73 0 -12 -122 6 -202 32 -48 15 -82 31 -88 43 -15 28 -12 33
13 26 12 -4 68 -17 124 -28z m542 -5 c-48 -184 -136 -411 -176 -455 -36 -40
-2 -24 88 39 52 37 155 109 229 161 l135 94 60 -7 c149 -16 505 -129 505 -160
0 -17 -137 -151 -235 -230 -89 -72 -277 -205 -289 -205 -3 0 -6 8 -6 18 0 28
-37 80 -69 97 -25 12 -76 15 -301 15 l-271 0 46 66 c25 37 45 74 45 83 0 9 6
25 14 36 7 11 25 58 41 105 15 47 48 143 73 214 39 108 52 132 77 148 42 25
45 23 34 -19z m-552 -72 c45 -12 108 -21 141 -21 l60 0 58 -66 57 -66 -18 -55
c-23 -68 -96 -198 -132 -235 -35 -37 -70 -36 -144 3 -68 37 -63 23 -108 268
-37 196 -38 216 -13 202 10 -5 54 -19 99 -30z m-37 -591 c6 -12 10 -33 8 -48
-4 -35 -53 -45 -63 -13 -8 25 -55 30 -55 6 0 -8 9 -15 20 -15 16 0 20 -7 20
-30 0 -23 -4 -30 -20 -30 -11 0 -20 -7 -20 -15 0 -9 9 -15 25 -15 19 0 25 5
25 21 0 17 5 20 33 17 31 -3 32 -4 29 -43 -2 -22 -5 -41 -5 -41 -1 -1 -53 -9
-116 -19 -63 -9 -119 -17 -125 -18 -16 -3 -8 46 10 60 18 13 36 123 23 138
-11 11 -12 49 -2 58 3 4 50 7 104 7 89 0 99 -2 109 -20z m318 -12 c2 -16 -2
-28 -8 -28 -6 0 -28 -38 -50 -85 l-39 -85 -45 0 c-25 0 -48 5 -52 12 -10 16
-35 113 -41 159 -10 72 34 57 78 -27 13 -24 27 -44 30 -44 12 0 29 53 24 71
-9 28 30 61 68 57 27 -2 33 -8 35 -30z m246 21 c2 -2 7 -25 10 -51 7 -48 7
-48 -22 -48 -23 0 -31 5 -36 25 -5 19 -13 25 -32 25 -33 0 -29 -33 4 -38 30
-5 32 -52 1 -52 -32 0 -20 -34 14 -38 20 -2 27 1 27 13 0 12 8 16 33 13 31 -3
32 -4 35 -57 3 -45 1 -53 -13 -48 -16 7 -103 21 -187 32 -43 6 -48 9 -48 31 0
13 5 24 10 24 17 0 12 110 -5 116 -16 6 -21 45 -7 58 7 8 210 2 216 -5z m271
-9 c8 -7 22 -37 31 -67 l16 -55 -32 -33 c-28 -29 -36 -32 -57 -24 -38 14 -43
11 -43 -26 0 -41 -24 -58 -78 -53 -30 2 -38 7 -40 27 -2 13 2 27 8 31 19 12
-7 141 -32 158 -10 7 -18 22 -18 32 0 16 9 20 68 23 99 6 159 2 177 -13z
m-811 -226 c24 -9 19 -44 -14 -111 -36 -72 -57 -92 -101 -99 -34 -6 -34 -6
-59 61 -14 37 -31 70 -37 72 -7 3 -13 16 -13 29 0 19 6 24 38 29 20 3 49 8 64
10 33 5 43 -7 28 -36 -9 -16 -9 -28 1 -50 l12 -30 19 28 c12 19 16 37 12 57
-8 37 14 54 50 40z m294 -36 c3 -34 1 -38 -21 -38 -14 0 -31 9 -39 22 -9 14
-20 19 -31 15 -23 -9 -21 -27 3 -27 13 0 20 -7 20 -19 0 -10 -9 -21 -20 -24
-28 -7 -25 -27 5 -27 14 0 25 4 25 10 0 5 15 16 34 24 19 8 37 23 40 33 3 11
25 28 49 40 37 18 50 19 110 11 65 -10 67 -11 67 -39 0 -16 -3 -29 -8 -29 -4
0 -6 -18 -4 -40 5 -52 -4 -86 -24 -94 -22 -8 -49 13 -34 28 5 5 10 14 10 19 0
5 -11 -5 -25 -21 -29 -34 -32 -57 -9 -66 8 -3 12 -11 8 -17 -5 -8 -9 -7 -15 4
-6 10 -31 18 -65 23 -41 5 -54 10 -50 20 5 12 2 12 -15 3 -19 -9 -20 -8 -14
10 6 19 2 21 -39 21 -40 0 -48 4 -72 36 -16 20 -27 48 -27 65 0 51 -16 17 -19
-41 -3 -48 -6 -55 -26 -58 -27 -4 -40 23 -24 49 15 23 16 96 2 104 -5 3 -10
15 -10 26 0 19 6 20 108 17 l107 -3 3 -37z m-528 -13 c0 -8 -9 -22 -19 -32
-26 -24 -45 -123 -24 -123 10 0 13 -6 9 -16 -3 -9 -6 -19 -6 -24 0 -12 -76
-40 -110 -40 -23 0 -30 4 -30 20 0 11 6 20 14 20 16 0 39 122 24 131 -5 4 -8
17 -6 30 2 18 13 26 48 35 64 17 100 17 100 -1z m875 -6 c6 -6 2 -17 -11 -30
-18 -17 -24 -18 -47 -8 -18 8 -27 20 -27 36 0 22 3 23 38 17 20 -3 41 -10 47
-15z m-1055 -33 c0 -47 -14 -75 -41 -85 -23 -8 -29 -7 -29 5 0 26 -50 9 -80
-28 -14 -17 -17 -17 -37 -3 -47 33 -18 66 89 100 86 28 98 30 98 11z m-29
-169 c-7 -7 -21 -4 -45 7 -20 9 -36 19 -36 22 0 3 19 14 43 24 l42 19 3 -31
c2 -17 -1 -35 -7 -41z m627 -29 c4 -1 18 -18 31 -35 19 -28 29 -33 61 -33 26
0 42 -6 48 -17 5 -9 21 -17 34 -19 40 -4 119 -45 111 -58 -4 -6 1 -5 10 2 13
11 24 11 54 2 48 -15 129 -66 137 -85 8 -23 -7 -25 -70 -10 -77 18 -128 19
-163 0 -16 -8 -31 -12 -34 -9 -7 7 -65 -55 -73 -79 -4 -12 -12 -16 -25 -12
-15 5 -19 1 -19 -17 0 -13 -7 -33 -15 -44 -8 -12 -11 -24 -8 -28 3 -3 2 -6 -4
-6 -20 0 -44 39 -41 67 2 22 9 29 31 31 27 3 53 34 42 52 -3 6 1 7 9 4 22 -8
21 22 -1 35 -14 7 -15 12 -5 24 7 8 10 22 6 30 -4 10 4 26 21 41 31 29 28 58
-5 49 -12 -3 -19 -11 -16 -19 3 -7 -3 -18 -12 -23 -12 -8 -13 -10 -3 -11 20 0
-17 -40 -37 -40 -11 0 -13 8 -8 31 5 25 0 40 -25 74 -21 29 -30 51 -26 64 3
12 0 21 -6 22 -50 3 -64 13 -47 33 10 13 14 13 26 2 7 -8 17 -16 22 -18z
m-360 16 c30 -6 31 -7 15 -30 -11 -18 -24 -24 -52 -24 -52 0 -66 12 -50 39 14
22 35 25 87 15z m-816 -220 c34 -18 64 -56 79 -102 14 -45 36 -76 111 -160 72
-82 129 -205 105 -229 -13 -13 -22 -11 -78 18 -144 72 -269 176 -302 249 -20
45 -36 202 -23 235 4 13 14 15 43 9 21 -4 50 -13 65 -20z m1238 -33 c0 -6 -4
-13 -10 -16 -5 -3 -10 1 -10 9 0 9 5 16 10 16 6 0 10 -4 10 -9z m9 -43 c-8
-14 -14 -18 -17 -10 -4 13 17 46 25 38 3 -2 -1 -15 -8 -28z m-305 -60 c22 -31
20 -38 -8 -38 -19 0 -23 -4 -19 -20 4 -14 0 -20 -11 -20 -25 0 -30 26 -12 65
20 41 29 43 50 13z m8 -80 c-7 -7 -12 -8 -12 -2 0 14 12 26 19 19 2 -3 -1 -11
-7 -17z m-126 -260 c21 -16 114 -175 114 -195 0 -10 -6 -27 -13 -37 -12 -16
-19 -7 -74 86 -33 57 -71 120 -83 140 l-22 38 34 -12 c18 -6 38 -15 44 -20z
m591 -35 c17 -12 42 -28 55 -33 41 -19 69 -37 96 -63 15 -14 44 -33 66 -42 39
-17 39 -27 -1 -40 -17 -4 -23 -2 -23 8 0 28 -120 122 -134 105 -23 -27 -86
-140 -86 -154 0 -40 14 -48 63 -35 59 14 57 15 57 -10 0 -41 -64 -65 -90 -34
-10 13 -14 13 -28 -1 -8 -9 -25 -14 -39 -11 -15 3 -23 -1 -23 -9 0 -7 -9 -18
-20 -24 -17 -9 -28 -7 -56 11 -19 12 -33 27 -31 33 3 7 -3 18 -14 24 -10 7
-16 18 -13 26 3 8 -2 26 -11 40 -19 29 -16 32 49 38 35 4 40 1 64 -36 14 -23
27 -43 29 -45 2 -2 6 -1 10 2 3 4 -3 17 -14 30 -37 41 -36 57 2 73 42 17 44
34 10 98 -14 26 -25 63 -25 82 l0 36 38 -23 c20 -12 51 -33 69 -46z m-444 -40
c8 -31 1 -93 -12 -93 -9 0 -101 143 -101 158 0 6 23 0 52 -13 39 -18 55 -32
61 -52z m-243 20 c0 -22 -47 -157 -55 -160 -15 -5 -72 33 -89 59 -8 13 -16 36
-18 52 -3 29 -2 30 62 42 84 15 100 16 100 7z m-25 -194 c5 -6 5 -13 -3 -21
-8 -8 -21 -5 -51 17 -23 15 -38 31 -36 36 6 8 72 -16 90 -32z m921 -8 c-19
-21 -85 -55 -92 -48 -17 17 47 65 90 66 18 1 18 0 2 -18z m-826 -25 c14 -6 26
-21 28 -34 4 -24 0 -26 -26 -13 -9 6 -29 12 -44 16 -22 4 -28 11 -28 31 0 27
12 27 70 0z m88 -34 c2 -7 -3 -12 -12 -12 -9 0 -16 7 -16 16 0 17 22 14 28 -4z
m-520 -89 c-3 -90 -5 -98 -24 -101 -37 -5 -46 36 -24 112 21 73 27 86 41 86 6
0 9 -39 7 -97z m322 -79 c0 -17 -5 -24 -19 -24 -28 0 -33 13 -15 39 18 26 34
19 34 -15z m105 22 c32 -23 12 -46 -40 -46 -41 0 -45 2 -45 24 0 36 49 49 85
22z m805 -11 c21 -22 21 -25 6 -31 -26 -10 -66 12 -66 36 0 28 31 26 60 -5z
m-711 4 c43 -15 41 -39 -4 -39 -24 0 -37 6 -45 19 -18 35 -7 40 49 20z m631
-14 c0 -22 -4 -25 -40 -25 -47 0 -50 9 -12 32 38 24 52 22 52 -7z m-136 -27
c-3 -4 49 -8 114 -8 l120 0 11 -31 c17 -48 14 -66 -21 -132 -47 -87 -112 -151
-170 -165 -74 -19 -97 -15 -133 21 -58 58 -89 219 -56 292 13 29 17 30 77 30
34 1 60 -3 58 -7z m-373 -31 c46 -31 48 -62 9 -135 -40 -75 -115 -170 -145
-184 -34 -15 -78 5 -143 66 -73 69 -82 89 -82 191 l0 85 164 0 c153 0 165 -1
197 -23z"/>
<path d="M4205 5020 c3 -5 8 -10 11 -10 2 0 4 5 4 10 0 6 -5 10 -11 10 -5 0
-7 -4 -4 -10z"/>
<path d="M3951 5017 c2 -1 15 -11 29 -22 15 -12 20 -14 12 -4 -6 9 -9 19 -5
22 3 4 -4 7 -17 7 -13 0 -21 -1 -19 -3z"/>
<path d="M4050 4940 c0 -5 5 -10 11 -10 5 0 7 5 4 10 -3 6 -8 10 -11 10 -2 0
-4 -4 -4 -10z"/>
<path d="M3546 4153 c-10 -24 13 -122 36 -160 23 -39 41 -42 63 -10 15 20 14
23 -5 39 -15 12 -20 28 -20 60 0 34 -6 50 -23 66 -28 26 -43 28 -51 5z"/>
<path d="M4674 2508 c3 -13 6 -26 6 -30 0 -5 11 -8 25 -8 31 0 35 34 6 50 -32
16 -44 12 -37 -12z"/>
<path d="M4350 2309 c0 -5 5 -7 10 -4 6 3 10 8 10 11 0 2 -4 4 -10 4 -5 0 -10
-5 -10 -11z"/>
<path d="M4270 2230 c0 -6 7 -10 15 -10 8 0 15 2 15 4 0 2 -7 6 -15 10 -8 3
-15 1 -15 -4z"/>
<path d="M4325 1890 c3 -5 8 -10 11 -10 2 0 4 5 4 10 0 6 -5 10 -11 10 -5 0
-7 -4 -4 -10z"/>
<path d="M4376 1845 c-9 -26 -7 -32 5 -12 6 10 9 21 6 23 -2 3 -7 -2 -11 -11z"/>
<path d="M4380 1305 c-7 -14 -17 -25 -22 -25 -4 0 -8 -7 -8 -15 0 -26 17 -17
39 21 23 39 25 44 13 44 -5 0 -15 -11 -22 -25z"/>
<path d="M4251 1095 c-21 -36 -17 -40 29 -25 17 5 19 8 7 9 -13 1 -16 7 -11
26 9 35 0 31 -25 -10z"/>
</g>
</svg>
