<?xml version="1.0" standalone="no"?>
<!DOCTYPE svg PUBLIC "-//W3C//DTD SVG 20010904//EN"
 "http://www.w3.org/TR/2001/REC-SVG-20010904/DTD/svg10.dtd">
<svg version="1.0" xmlns="http://www.w3.org/2000/svg"
 width="800.000000pt" height="241.000000pt" viewBox="0 0 800.000000 241.000000"
 preserveAspectRatio="xMidYMid meet">
<metadata>
Created by potrace 1.16, written by Peter Selinger 2001-2019
</metadata>
<g transform="translate(0.000000,241.000000) scale(0.100000,-0.100000)"
fill="#000000" stroke="none">
<path d="M0 2380 c0 -22 5 -30 18 -30 25 0 92 -61 92 -83 0 -10 12 -23 28 -30
15 -6 29 -14 32 -17 7 -7 49 -30 55 -30 3 0 5 5 5 10 0 6 -7 10 -16 10 -8 0
-12 5 -9 10 3 6 -2 10 -13 10 -10 0 -24 11 -30 25 -16 36 -15 42 9 48 28 7 21
41 -9 45 -13 2 -48 17 -78 33 -71 37 -84 37 -84 -1z"/>
<path d="M2760 2392 c0 -27 86 -132 108 -132 12 0 46 -69 38 -77 -4 -4 -10 -3
-14 2 -4 6 -19 16 -34 24 -16 8 -28 18 -28 23 0 4 -6 8 -13 8 -7 0 -19 9 -27
20 -17 24 -30 26 -30 5 0 -9 8 -19 18 -22 9 -4 22 -12 28 -17 31 -28 55 -46
64 -46 6 0 10 -4 10 -10 0 -5 10 -10 21 -10 12 0 32 -11 45 -25 13 -14 26 -25
30 -25 8 0 64 -63 64 -72 0 -5 9 -8 19 -8 11 0 23 -9 26 -20 3 -11 15 -20 26
-20 10 0 24 -9 31 -20 7 -11 17 -20 23 -20 6 0 17 -9 25 -20 8 -11 22 -20 31
-20 9 0 19 -7 23 -15 6 -17 -17 -78 -27 -68 -4 3 -7 -6 -7 -20 0 -15 0 -30 -1
-34 0 -4 3 -9 8 -10 5 -2 15 13 23 33 16 40 65 68 87 50 56 -48 113 -105 113
-115 0 -6 6 -11 13 -11 7 0 23 -11 35 -25 12 -14 26 -25 32 -25 5 0 10 -5 10
-11 0 -6 16 -27 36 -47 41 -41 54 -69 54 -115 0 -21 7 -36 20 -45 17 -11 20
-10 20 8 0 11 6 41 12 67 14 52 33 80 43 63 3 -5 2 -10 -4 -10 -20 0 -6 -39
19 -52 14 -7 28 -17 32 -23 11 -15 -4 -148 -18 -162 -7 -7 -15 -26 -19 -43 -6
-28 -9 -30 -56 -30 l-49 0 20 -20 c11 -11 32 -20 46 -20 20 0 25 -4 20 -16 -3
-9 -6 -28 -7 -42 l-1 -27 -8 25 c-8 24 -8 23 -9 -8 -1 -38 -37 -173 -48 -181
-5 -3 -17 -31 -27 -61 -11 -30 -26 -61 -33 -68 -7 -8 -10 -18 -7 -24 4 -6 10
-6 17 1 7 7 16 7 29 0 11 -6 21 -9 22 -7 8 12 46 139 46 152 0 10 4 15 9 12 5
-3 11 9 14 27 3 17 8 46 12 62 3 17 8 40 11 53 3 17 11 22 34 22 34 0 37 5 14
28 -14 13 -16 30 -10 104 4 49 11 100 16 114 5 13 11 38 12 54 1 17 8 30 16
30 7 0 10 -4 7 -10 -3 -5 -2 -10 4 -10 5 0 13 -9 16 -20 4 -12 15 -20 27 -20
19 0 68 -42 68 -58 0 -4 11 -19 24 -33 31 -34 46 -63 46 -91 0 -34 -24 -128
-32 -128 -5 0 -8 -13 -8 -30 0 -16 -7 -55 -15 -87 -8 -31 -14 -71 -14 -88 1
-23 3 -25 6 -7 2 12 9 22 14 22 5 0 9 18 9 40 0 22 5 40 10 40 6 0 10 25 10
55 0 30 5 55 10 55 6 0 10 9 10 20 0 11 5 20 10 20 6 0 10 -9 10 -20 0 -11 5
-20 10 -20 6 0 10 14 10 30 0 17 -4 30 -10 30 -5 0 -10 14 -10 30 0 40 12 38
46 -7 15 -21 40 -50 56 -66 15 -15 28 -29 28 -32 0 -12 65 -65 79 -64 10 0 12
2 4 6 -18 7 -16 33 2 33 9 0 18 -7 21 -15 4 -8 12 -15 20 -15 7 0 19 -8 26
-18 7 -11 20 -22 28 -25 8 -4 -3 -4 -25 -1 -22 3 -41 10 -43 15 -2 5 -8 9 -14
9 -6 0 -6 -6 2 -15 7 -8 21 -15 31 -15 11 0 19 -7 19 -15 0 -8 9 -15 20 -15
11 0 29 -9 40 -20 11 -11 27 -20 35 -20 8 0 15 -4 15 -10 0 -5 9 -10 20 -10
11 0 20 -4 20 -10 0 -5 5 -10 10 -10 6 0 18 -8 29 -18 10 -9 32 -28 50 -42 17
-14 31 -27 31 -30 0 -9 -79 -30 -115 -30 -22 0 -34 -4 -30 -10 4 -6 -10 -10
-35 -10 -23 0 -39 4 -36 9 4 5 -6 13 -21 18 -25 9 -27 14 -26 54 1 24 -1 33
-4 19 -2 -14 -9 -29 -14 -34 -5 -6 -9 -18 -9 -29 0 -10 -4 -15 -10 -12 -5 3
-10 -3 -10 -13 0 -25 -45 -35 -121 -26 -44 5 -62 3 -80 -10 -13 -9 -36 -16
-52 -16 -26 0 -62 -13 -165 -62 -39 -19 -45 -19 -59 -5 -14 14 -11 16 28 26
38 9 30 10 -56 6 -130 -5 -135 -7 -135 -57 l0 -40 93 5 c129 7 155 11 217 37
30 12 71 26 90 30 87 22 144 41 150 50 5 9 84 9 163 1 4 -1 7 -27 8 -58 0 -42
3 -52 9 -38 5 11 9 37 9 57 1 47 10 68 28 68 8 0 12 -4 9 -9 -9 -13 122 -24
197 -16 51 6 67 4 73 -7 5 -8 17 -17 27 -21 9 -3 17 -13 17 -20 0 -8 11 -19
25 -25 14 -6 25 -16 25 -22 0 -5 5 -10 10 -10 15 0 12 16 -5 34 -8 8 -15 19
-15 25 0 6 -4 11 -10 11 -5 0 -10 7 -10 15 0 8 3 15 6 15 9 0 44 -41 44 -52 0
-4 7 -8 15 -8 19 0 19 -34 1 -63 -8 -12 -18 -43 -21 -69 -4 -27 -11 -48 -16
-48 -5 0 -9 -13 -9 -30 0 -16 -4 -30 -10 -30 -5 0 -10 -13 -10 -28 0 -15 -6
-34 -12 -41 -11 -11 -10 -13 5 -7 10 3 21 6 23 6 2 0 4 16 4 35 0 19 5 35 11
35 7 0 9 10 7 25 -3 14 -1 28 3 31 5 3 9 14 9 25 0 10 7 19 15 19 8 0 15 8 15
18 1 9 7 0 14 -21 8 -20 18 -43 23 -50 6 -6 23 -48 38 -92 15 -44 38 -107 50
-140 83 -222 74 -205 106 -205 16 0 29 1 29 3 0 2 -24 57 -53 123 -30 65 -71
173 -92 239 -21 66 -42 124 -46 129 -5 6 -9 16 -9 24 0 16 -35 90 -53 115 -8
9 -19 17 -25 17 -13 0 -24 32 -17 51 4 11 31 14 113 15 59 1 134 6 166 13 33
6 121 11 195 11 l136 0 -3 -85 c-2 -56 0 -85 7 -85 7 0 11 33 11 90 0 73 3 92
16 97 12 4 13 8 3 14 -10 6 -9 12 5 28 15 17 16 23 6 36 -7 8 -9 15 -4 15 5 0
1 5 -8 11 -17 9 -18 39 -18 394 0 370 1 385 19 395 11 5 33 10 50 10 21 0 31
5 31 15 0 11 14 15 58 16 52 1 54 2 30 12 -40 16 -34 27 13 27 35 0 41 -3 37
-18 -5 -17 -1 -18 46 -10 28 4 75 7 104 6 47 -1 52 -4 52 -24 0 -12 7 -24 15
-28 11 -4 15 1 15 17 0 37 33 57 96 57 34 0 53 -4 49 -10 -4 -6 39 -10 122
-10 119 1 127 2 108 17 -18 14 -18 15 -2 9 10 -3 27 -6 38 -6 11 0 19 -7 19
-16 0 -8 -4 -12 -10 -9 -5 3 -10 1 -10 -5 0 -6 6 -10 13 -9 6 1 31 1 55 0 l42
-1 -1 -47 c-1 -27 -4 -61 -8 -77 -6 -31 -31 -48 -31 -22 0 9 -3 16 -6 16 -9 0
-34 -28 -34 -38 0 -5 -18 -14 -40 -21 -22 -6 -40 -16 -40 -21 0 -6 -7 -10 -15
-10 -8 0 -15 -4 -15 -10 0 -5 -11 -12 -25 -16 -14 -3 -25 -12 -25 -20 0 -8 -4
-14 -9 -14 -4 0 -22 -13 -39 -30 -18 -17 -36 -30 -42 -30 -5 0 -10 -4 -10 -10
0 -5 -5 -10 -11 -10 -12 0 -29 -17 -45 -45 -6 -11 -20 -24 -32 -30 -12 -5 -22
-15 -22 -22 0 -7 -6 -13 -13 -13 -8 0 -19 -11 -25 -25 -9 -19 -19 -25 -45 -25
-18 0 -42 -7 -53 -15 -37 -28 -124 -9 -124 28 0 10 -8 17 -20 17 -11 0 -20 -4
-20 -10 0 -5 6 -10 14 -10 8 0 18 -9 21 -20 3 -11 13 -20 21 -20 8 0 14 -10
14 -26 0 -21 -4 -24 -20 -19 -11 4 -20 2 -20 -4 0 -6 9 -11 20 -11 11 0 20 -7
20 -15 0 -8 -7 -15 -15 -15 -8 0 -15 -7 -15 -15 0 -8 -9 -20 -20 -27 -11 -7
-20 -18 -20 -25 0 -7 -7 -13 -15 -13 -8 0 -15 -4 -15 -10 0 -5 -7 -10 -15 -10
-9 0 -12 -6 -9 -15 4 -9 0 -15 -10 -15 -9 0 -16 -4 -16 -10 0 -5 -4 -10 -9
-10 -12 0 -71 -59 -71 -71 0 -5 -7 -9 -15 -9 -8 0 -15 -4 -15 -10 0 -5 5 -10
11 -10 14 0 39 25 39 39 0 6 7 11 15 11 8 0 15 5 15 10 0 6 6 10 14 10 7 0 25
11 40 25 15 14 34 25 42 25 7 0 14 9 14 20 0 11 5 20 10 20 6 0 16 11 22 25 6
14 17 25 23 25 7 0 27 15 46 32 19 18 37 32 42 30 4 -1 7 5 7 13 0 11 13 15
54 15 48 0 54 -3 60 -23 10 -42 66 -90 66 -57 0 6 -7 10 -15 10 -9 0 -15 9
-15 21 0 11 -7 27 -15 35 -8 9 -15 27 -15 40 0 19 8 29 35 40 20 8 44 23 55
34 11 11 27 20 35 20 8 0 15 6 15 14 0 8 11 17 25 20 14 4 25 12 25 19 0 6 11
21 25 32 14 11 36 30 50 43 15 12 32 22 38 22 7 0 19 9 27 20 8 11 20 20 27
20 7 0 13 7 13 15 0 8 9 15 19 15 37 0 51 12 51 43 l0 31 18 -24 c14 -20 18
-52 20 -173 2 -84 8 -145 13 -141 5 3 9 75 9 160 l0 154 43 31 c23 17 58 37
77 45 19 8 44 24 56 35 12 11 42 23 66 26 23 3 55 14 70 24 14 11 40 19 57 19
l30 0 4 -87 3 -88 2 97 c2 113 3 114 97 117 33 1 62 7 63 12 5 13 100 11 104
-2 2 -7 30 -12 68 -13 l65 -1 3 -52 c4 -67 22 -70 22 -4 0 80 1 81 97 81 53 0
82 -4 78 -10 -3 -5 1 -10 9 -10 10 0 16 -9 16 -25 0 -14 -4 -25 -10 -25 -5 0
-10 -13 -10 -29 0 -16 -7 -34 -15 -41 -8 -7 -15 -21 -15 -31 0 -11 -7 -19 -15
-19 -8 0 -15 -9 -15 -20 0 -17 7 -20 39 -20 31 0 41 4 46 20 4 11 10 18 14 15
5 -2 14 16 21 40 7 25 16 45 21 45 4 0 11 16 15 35 3 20 12 35 20 35 8 0 14 5
14 10 0 6 23 10 50 10 28 0 50 5 50 10 0 6 15 10 33 10 18 0 37 4 42 9 6 5 44
11 85 12 41 1 89 6 105 10 17 4 42 10 58 13 37 9 37 43 0 50 -79 14 -136 17
-231 11 -74 -6 -100 -10 -88 -17 9 -5 36 -8 59 -6 62 4 177 -13 152 -23 -11
-4 -38 -8 -60 -8 -23 -1 -46 -6 -52 -12 -6 -6 -44 -12 -84 -13 -64 -1 -74 1
-77 17 -2 12 4 20 17 24 17 4 21 13 21 49 0 24 5 44 10 44 6 0 10 14 10 30 0
17 6 33 13 36 7 2 14 14 14 27 1 12 7 23 13 25 5 2 10 14 10 27 0 13 4 25 10
27 5 2 12 32 16 68 3 36 13 83 21 105 18 48 43 140 43 160 0 10 -10 15 -30 15
-19 0 -30 -5 -30 -14 0 -8 -11 -47 -25 -88 -14 -41 -25 -96 -25 -126 0 -37 -4
-54 -15 -58 -11 -5 -15 -22 -15 -65 0 -32 -4 -59 -9 -59 -5 0 -11 -10 -13 -22
-2 -13 -9 -22 -16 -21 -7 2 -12 -7 -12 -21 0 -14 -7 -31 -15 -40 -8 -8 -15
-22 -15 -30 0 -9 -4 -16 -10 -16 -5 0 -10 9 -10 19 0 10 -7 21 -15 25 -11 4
-15 -1 -15 -18 0 -50 -60 -85 -150 -86 -23 0 -30 -3 -22 -9 10 -6 4 -10 -18
-15 -49 -9 -55 -8 -85 20 -23 21 -35 25 -66 21 l-38 -5 -3 42 c-4 56 -31 57
-39 1 -3 -22 -7 -33 -8 -25 -2 10 -5 7 -11 -7 -9 -21 -16 -23 -85 -23 -42 0
-74 -4 -71 -9 7 -11 -27 -21 -71 -21 l-32 0 -3 63 -3 62 -212 3 -213 2 0 -67
0 -68 -297 0 c-237 0 -297 3 -301 13 -5 15 32 54 42 45 3 -4 6 1 6 9 0 9 12
18 30 21 16 4 39 16 50 27 11 11 31 20 44 20 13 0 26 7 30 15 3 8 17 15 31 15
14 0 25 4 25 8 0 4 17 14 37 21 21 8 43 20 51 28 7 7 18 11 23 8 5 -4 9 -2 9
4 0 5 14 12 30 16 17 4 30 13 30 20 0 8 18 20 40 26 22 7 45 18 51 26 6 7 26
13 45 13 18 0 44 4 57 9 37 14 67 3 67 -25 0 -13 5 -24 10 -24 15 0 12 57 -2
63 -10 4 -10 6 0 6 6 1 12 8 12 16 0 10 10 15 30 15 17 0 30 5 30 10 0 6 15
10 34 10 19 0 36 4 38 10 2 5 20 10 41 12 20 1 37 6 37 10 0 4 19 8 43 9 23 0
36 3 28 6 -16 7 52 33 87 33 13 0 22 6 22 15 0 8 7 15 15 15 8 0 15 5 15 10 0
6 11 10 24 10 21 0 83 46 75 55 -9 8 -95 -21 -111 -37 -10 -10 -25 -19 -33
-19 -28 -3 -33 -4 -41 -11 -4 -5 -16 -8 -27 -8 -13 0 -17 -5 -13 -15 4 -11 -2
-15 -24 -15 -16 0 -32 -4 -35 -10 -3 -6 -17 -10 -31 -10 -13 0 -24 -4 -24 -10
0 -5 -18 -10 -40 -10 -22 0 -40 4 -40 8 0 5 18 15 40 22 22 7 40 18 40 24 0 6
15 18 33 26 34 15 39 17 62 19 8 0 15 8 15 16 0 8 5 15 10 15 6 0 10 5 10 11
0 8 -6 7 -17 -2 -9 -8 -18 -13 -20 -11 -11 8 -33 0 -33 -13 0 -10 -10 -15 -26
-15 -15 0 -41 -9 -58 -19 -17 -11 -34 -20 -38 -20 -5 -1 -11 -1 -15 -2 -5 0 1
-4 12 -9 20 -9 20 -9 -1 -9 -24 -1 -74 -23 -74 -33 0 -5 -9 -8 -20 -8 -11 0
-20 -4 -20 -10 0 -14 -104 -12 -118 2 -7 7 -12 27 -12 45 0 23 -5 33 -15 33
-11 0 -15 -11 -15 -41 0 -53 -30 -109 -59 -109 -6 0 -11 -7 -11 -15 0 -8 -7
-16 -15 -16 -8 -1 -19 -3 -25 -4 -5 -1 -17 -3 -25 -4 -8 0 -15 -8 -15 -16 0
-9 -9 -15 -25 -15 -14 0 -35 -10 -46 -21 -21 -21 -91 -46 -156 -56 -18 -3 -33
-9 -33 -13 0 -4 -15 -10 -32 -14 -27 -5 -30 -9 -18 -17 11 -8 12 -12 3 -16 -7
-2 -13 -11 -13 -19 0 -8 -7 -14 -15 -14 -9 0 -27 -11 -40 -24 -17 -18 -40 -26
-84 -31 -34 -4 -61 -12 -61 -17 0 -6 7 -8 15 -4 8 3 15 1 15 -4 0 -15 -26 -12
-39 3 -12 15 3 37 26 37 7 0 13 6 13 14 0 8 12 17 28 19 27 4 27 4 1 6 -14 0
-34 -7 -45 -17 -10 -10 -38 -23 -61 -30 -24 -7 -43 -17 -43 -22 0 -4 -14 -11
-30 -15 -17 -4 -35 -15 -40 -25 -6 -11 -26 -22 -45 -26 -19 -3 -38 -10 -41
-15 -3 -5 -12 -9 -20 -9 -12 0 -14 29 -14 175 l0 175 25 12 c28 12 28 31 2 36
-10 2 -17 -3 -17 -12 0 -11 -9 -16 -30 -16 l-30 0 0 -638 c0 -596 -1 -640 -17
-654 -14 -12 -60 -17 -213 -22 -107 -3 -205 -9 -217 -12 -18 -5 -23 -2 -23 12
-1 18 -1 18 -11 2 -7 -12 -24 -18 -52 -19 -23 -1 -32 -4 -19 -6 49 -9 3 -43
-59 -43 -22 0 -29 5 -29 20 0 14 7 20 23 21 l22 0 -22 11 c-13 6 -23 18 -24
27 0 11 -3 9 -9 -6 -7 -16 -15 -21 -32 -18 -13 3 -24 9 -26 15 -2 5 -10 10
-18 10 -8 0 -25 9 -37 20 -54 49 -80 70 -87 70 -12 0 -50 37 -50 49 0 7 -4 10
-9 6 -5 -3 -18 6 -29 20 -11 14 -23 25 -27 25 -4 0 -28 23 -54 51 -73 81 -142
149 -153 149 -5 0 -6 5 -3 10 3 6 0 10 -8 10 -7 0 -23 11 -35 25 -13 14 -27
23 -32 20 -15 -10 -12 -25 6 -25 20 0 94 -74 94 -94 0 -8 6 -17 13 -19 6 -3 7
-6 1 -6 -5 -1 -20 8 -32 19 -12 11 -25 20 -29 20 -5 0 -14 9 -21 20 -7 11 -18
20 -25 20 -8 0 -20 12 -27 26 -12 21 -12 27 0 34 11 7 11 11 -1 24 -8 8 -41
45 -74 82 -33 36 -70 77 -82 91 -28 30 -32 115 -7 140 11 11 12 19 4 27 -14
14 -30 -9 -30 -46 0 -23 -4 -28 -22 -27 -13 0 -17 3 -10 6 6 2 12 16 12 29 0
13 4 32 8 42 50 102 62 135 79 225 3 15 9 27 14 27 5 0 9 10 9 22 0 12 4 35
10 52 5 17 15 52 22 79 7 26 16 47 20 47 4 0 8 10 8 22 0 12 8 55 18 95 13 56
21 73 35 73 11 0 17 8 17 23 0 18 -2 19 -10 7 -8 -13 -10 -12 -10 3 0 11 8 17
24 17 14 0 38 11 54 25 17 14 37 25 46 25 9 0 16 5 16 10 0 6 6 10 14 10 7 0
19 7 26 15 11 13 5 15 -40 15 -56 0 -157 -40 -167 -67 -3 -7 -8 -11 -12 -9 -3
2 -15 0 -26 -5 -17 -7 -16 -8 8 -8 26 -1 27 -3 22 -43 -8 -67 -17 -108 -24
-108 -3 0 -17 -36 -31 -79 -13 -44 -27 -78 -31 -75 -4 2 -9 -9 -12 -24 -15
-74 -32 -122 -43 -122 -7 0 -14 -22 -19 -55 -3 -30 -11 -57 -16 -60 -5 -4 -9
-22 -9 -41 0 -19 -4 -34 -10 -34 -5 0 -10 -13 -10 -29 0 -17 -4 -33 -10 -36
-5 -3 -10 -15 -10 -26 0 -11 -7 -27 -15 -35 -12 -13 -17 -12 -35 3 -11 10 -20
23 -20 29 0 7 -7 14 -14 17 -8 3 -18 21 -21 40 -7 38 11 147 24 147 5 0 12 28
16 63 5 34 9 65 9 69 1 3 4 10 9 14 4 4 7 25 7 46 0 22 4 37 9 34 8 -6 15 20
27 109 4 22 10 44 15 49 5 6 9 22 9 37 0 15 4 29 10 31 5 2 10 20 12 41 1 20
6 37 11 37 4 0 5 5 2 10 -11 18 -35 11 -35 -10 0 -11 -4 -20 -10 -20 -5 0 -10
-22 -10 -49 0 -28 -5 -53 -11 -56 -6 -4 -9 -22 -7 -40 2 -25 -4 -39 -20 -53
-14 -12 -22 -31 -22 -49 0 -62 -13 -123 -26 -123 -9 0 -15 -23 -20 -70 -3 -38
-11 -70 -15 -70 -5 0 -9 -9 -9 -20 0 -11 -4 -20 -10 -20 -5 0 -10 -25 -10 -55
0 -30 -4 -55 -10 -55 -5 0 -10 -13 -10 -30 0 -16 -4 -30 -10 -30 -5 0 -10 9
-10 20 0 11 -4 20 -10 20 -5 0 -10 14 -10 30 0 17 -4 30 -9 30 -5 0 -12 36
-16 80 -5 56 -11 80 -20 80 -9 0 -15 23 -20 75 -4 41 -11 75 -15 75 -5 0 -10
8 -13 18 -2 9 -2 -5 0 -33 3 -27 8 -61 13 -75 15 -43 22 -140 11 -140 -5 0
-14 6 -18 13 -12 18 -64 53 -93 62 -14 4 -33 16 -42 26 -19 19 -25 44 -8 34 6
-3 10 3 10 14 0 12 5 21 10 21 6 0 10 9 10 20 0 11 -5 20 -11 20 -5 0 -7 -5
-4 -10 3 -6 -1 -13 -9 -16 -9 -3 -16 -12 -16 -20 0 -8 -9 -14 -20 -14 -11 0
-20 5 -20 10 0 6 -9 10 -21 10 -25 0 -59 17 -80 42 -21 23 -29 23 -29 -2 0
-11 5 -20 10 -20 6 0 10 -4 10 -10 0 -16 -14 -12 -38 10 -12 11 -24 20 -27 20
-3 0 -21 17 -41 37 -34 34 -35 38 -18 50 17 12 17 13 -1 13 -10 0 -15 3 -12 6
3 4 -8 20 -26 35 -54 49 -57 51 -57 39 0 -5 -5 -10 -11 -10 -6 0 -8 8 -5 18 5
13 -8 34 -41 69 -62 66 -93 102 -93 108 0 3 -10 21 -22 40 -17 26 -30 35 -50
35 -20 0 -28 -5 -28 -18z m230 -222 c0 -5 -4 -10 -10 -10 -5 0 -10 5 -10 10 0
6 5 10 10 10 6 0 10 -4 10 -10z m3780 -355 l0 -65 -180 0 -180 0 0 65 0 65
180 0 180 0 0 -65z m-3326 -15 c7 0 25 -11 40 -25 15 -14 31 -25 37 -25 5 0 9
-6 9 -14 0 -8 14 -19 30 -25 24 -8 30 -16 30 -40 0 -17 -3 -31 -6 -31 -9 0
-54 49 -54 59 0 4 -11 13 -24 19 -13 6 -30 24 -37 41 -8 17 -19 31 -25 31 -16
0 -35 25 -26 34 4 4 8 1 10 -8 2 -9 9 -16 16 -16z m2228 -13 c9 -14 -10 -27
-39 -27 -22 0 -38 14 -30 28 8 12 61 11 69 -1z m933 -109 c-16 -6 -46 -22 -65
-35 -19 -12 -38 -23 -43 -23 -4 0 -25 -11 -45 -25 -20 -14 -39 -25 -42 -25 -3
0 -3 27 -2 60 l4 60 111 -1 c92 0 107 -2 82 -11z m-298 -214 c-3 -3 -12 -4
-19 -1 -8 3 -5 6 6 6 11 1 17 -2 13 -5z m-2685 -608 c3 -16 1 -23 -7 -19 -7 2
-11 13 -8 24 7 25 10 24 15 -5z"/>
<path d="M4589 2384 c12 -15 21 -35 21 -44 0 -10 7 -20 15 -24 8 -3 15 -18 16
-33 0 -16 3 -21 6 -13 3 8 15 23 27 32 19 16 53 18 350 18 309 0 328 -1 321
-17 -4 -10 -10 -27 -13 -38 -3 -11 -9 -22 -13 -25 -4 -3 -9 -17 -11 -30 -2
-14 -6 -29 -9 -35 -4 -5 -10 -32 -14 -60 -4 -27 -13 -54 -20 -60 -8 -5 -16
-25 -19 -44 -7 -52 -29 -121 -38 -121 -4 0 -8 -11 -8 -25 0 -13 -4 -34 -9 -47
-5 -13 -15 -44 -22 -70 -8 -27 -16 -48 -20 -48 -4 0 -9 -16 -11 -35 -2 -19 -3
-35 -1 -35 10 0 43 47 43 62 0 10 4 18 8 18 4 0 9 17 10 38 2 20 7 39 12 40 6
2 10 13 10 25 0 12 7 31 15 41 8 11 15 31 15 44 0 14 7 30 15 36 9 7 17 39 21
94 4 45 11 82 15 82 5 0 9 16 9 35 0 19 5 35 10 35 6 0 10 9 10 20 0 11 4 20
8 20 12 0 30 110 19 117 -6 3 -159 4 -341 2 l-331 -4 -20 37 c-18 34 -24 38
-58 38 l-38 0 20 -26z"/>
<path d="M6208 2402 l-308 -2 0 -25 c0 -21 -6 -26 -40 -31 -44 -7 -58 -35 -15
-32 14 1 25 7 25 13 0 6 16 17 35 24 19 7 35 17 35 22 0 5 214 9 547 9 499 0
548 -1 565 -17 18 -16 20 -15 48 13 l30 29 -308 0 c-169 0 -445 -1 -614 -3z"/>
<path d="M7137 2374 c-8 -8 1 -24 14 -24 5 0 9 7 9 15 0 15 -12 20 -23 9z"/>
<path d="M1473 2339 c-6 -6 -23 -11 -37 -11 -14 0 -26 -4 -26 -9 0 -5 5 -9 10
-9 13 0 11 -98 -2 -106 -4 -3 -8 -14 -8 -25 0 -10 -4 -19 -10 -19 -5 0 -10
-11 -10 -24 0 -13 -7 -37 -15 -52 -8 -16 -15 -39 -15 -50 0 -12 -7 -24 -15
-28 -8 -3 -15 -12 -15 -20 0 -17 -32 -119 -40 -126 -8 -8 -27 -69 -41 -132 -7
-32 -16 -58 -21 -58 -4 0 -8 -15 -8 -34 0 -19 -4 -37 -9 -40 -4 -3 -11 -19
-14 -36 -4 -18 -13 -30 -22 -30 -8 0 -15 3 -15 8 0 4 -14 22 -30 41 -35 40
-45 70 -35 109 3 15 9 42 12 60 3 17 9 32 13 32 4 0 10 17 13 38 15 90 37 186
45 191 5 3 12 29 15 56 4 28 9 61 13 75 3 14 8 40 11 58 3 17 9 32 13 32 4 0
10 15 13 33 3 17 8 40 12 50 5 13 2 17 -14 17 -14 0 -21 -6 -21 -19 0 -11 -4
-22 -9 -25 -5 -3 -12 -46 -16 -95 -6 -76 -10 -90 -26 -94 -16 -4 -19 -15 -19
-61 0 -31 -4 -56 -10 -56 -5 0 -10 -13 -10 -30 0 -16 -4 -30 -10 -30 -5 0 -10
-13 -10 -30 0 -16 -4 -30 -10 -30 -5 0 -10 -13 -10 -29 0 -49 -12 -91 -26 -91
-10 0 -14 -15 -14 -54 0 -32 -5 -56 -11 -58 -8 -3 -5 -10 6 -22 10 -9 24 -15
32 -11 12 4 14 0 10 -16 -4 -15 3 -30 22 -50 16 -15 26 -31 23 -34 -3 -3 0 -5
6 -5 7 0 12 -18 13 -47 1 -49 3 -49 13 0 7 31 36 37 36 7 0 -11 5 -20 11 -20
5 0 7 -4 4 -10 -3 -6 4 -10 16 -10 21 0 69 -42 69 -59 0 -5 6 -11 13 -14 8 -3
12 8 12 37 0 32 -7 49 -27 69 -23 23 -26 32 -21 74 3 26 9 50 14 51 10 4 13
42 3 42 -14 0 -34 -31 -34 -54 0 -16 -6 -26 -14 -26 -11 0 -12 7 -4 38 5 20
12 47 15 60 3 12 9 25 14 28 5 3 9 14 9 25 0 10 4 19 8 19 8 0 42 107 45 140
1 11 4 20 8 20 9 0 11 7 35 115 10 44 21 82 24 85 4 3 13 34 20 70 7 36 16 70
21 75 7 10 9 16 9 35 0 6 9 10 20 10 24 0 25 8 6 29 -13 14 -9 16 47 13 34 -2
71 -7 83 -13 20 -10 177 -7 282 6 46 6 52 5 52 -12 0 -10 -9 -24 -20 -31 -17
-10 -20 -23 -20 -81 0 -39 -4 -73 -10 -76 -5 -3 -10 -19 -10 -36 0 -16 -4 -29
-10 -29 -6 0 -10 -26 -10 -59 0 -37 -5 -61 -12 -63 -7 -3 -13 -38 -16 -96 -3
-68 -8 -92 -18 -92 -9 0 -15 -20 -20 -60 -4 -33 -11 -60 -15 -60 -5 0 -9 -22
-9 -49 0 -32 -5 -51 -14 -54 -14 -6 -11 -57 3 -57 9 0 29 83 37 156 4 30 10
54 14 54 10 0 30 80 30 119 0 16 4 32 8 35 4 2 9 24 11 48 1 24 6 45 12 46 5
2 9 19 9 37 0 19 5 37 10 40 6 3 10 19 10 35 0 40 22 130 32 130 4 0 8 12 8
26 0 14 7 50 16 80 l15 54 22 -20 c11 -11 24 -20 28 -20 4 0 10 -10 12 -22 5
-23 6 -11 8 59 0 12 8 23 20 26 10 3 163 3 338 0 l320 -6 -6 -31 c-3 -17 -12
-36 -19 -42 -8 -6 -14 -19 -14 -28 0 -24 -33 -150 -41 -156 -4 -3 -15 -38 -24
-78 -10 -41 -24 -80 -31 -87 -7 -7 -14 -29 -16 -50 -1 -20 -5 -38 -9 -41 -4
-2 -10 -23 -14 -47 -4 -23 -12 -45 -17 -48 -12 -8 -15 -58 -3 -59 6 -1 14 12
20 29 5 17 13 31 17 31 4 0 8 18 8 40 0 22 5 40 10 40 6 0 10 9 10 20 0 12 8
33 17 47 10 14 18 38 19 52 1 14 6 27 13 29 6 2 11 21 11 43 0 21 4 39 9 39 4
0 12 36 15 80 5 58 11 80 21 80 10 0 17 17 21 49 4 28 15 59 26 71 11 12 17
24 13 28 -4 4 -176 10 -383 14 -482 10 -528 10 -641 3 -61 -4 -97 -3 -104 4
-15 15 -140 14 -154 0z"/>
<path d="M3275 2330 l-130 -6 158 -2 c103 -1 156 1 152 8 -3 6 -16 9 -28 8
-12 -1 -80 -5 -152 -8z"/>
<path d="M4576 2324 c-3 -9 -6 -26 -6 -39 0 -14 -9 -29 -20 -35 -17 -9 -20
-21 -20 -80 0 -38 -4 -72 -10 -75 -5 -3 -10 -19 -10 -36 0 -16 -4 -29 -10 -29
-6 0 -10 -27 -10 -60 0 -33 -4 -60 -10 -60 -5 0 -10 -9 -10 -20 0 -11 -4 -20
-10 -20 -12 0 -14 -126 -2 -134 4 -2 14 32 21 77 7 45 16 84 20 87 5 3 11 21
13 40 14 94 33 186 41 191 5 4 14 38 20 78 6 39 15 71 19 71 4 0 8 14 8 30 0
32 -14 40 -24 14z"/>
<path d="M530 2323 c0 -5 68 -8 150 -8 83 0 150 3 150 8 0 4 -67 7 -150 7 -82
0 -150 -3 -150 -7z"/>
<path d="M190 2305 c0 -3 19 -25 43 -50 50 -52 67 -72 67 -80 0 -10 -38 -5
-42 7 -3 7 -11 9 -24 3 -17 -7 -17 -8 -1 -12 9 -3 17 -9 17 -14 0 -5 14 -9 31
-9 17 0 28 -4 24 -10 -3 -5 1 -10 10 -10 8 0 18 -7 21 -15 3 -8 14 -17 25 -20
10 -4 19 -10 19 -15 0 -12 45 -60 56 -60 5 0 16 -9 24 -20 8 -11 19 -20 25
-20 5 0 29 -18 53 -39 24 -22 51 -41 60 -43 21 -5 19 -62 -3 -85 -19 -19 -19
-53 0 -53 8 0 18 12 21 27 9 35 27 53 53 53 31 0 70 -21 76 -42 4 -10 12 -18
18 -18 7 0 21 -13 32 -30 18 -27 33 -36 89 -54 12 -4 5 7 -17 27 -21 18 -37
38 -37 44 0 5 -11 16 -25 23 -27 14 -33 30 -12 30 6 0 25 -16 42 -35 16 -19
35 -35 42 -35 7 0 20 -11 29 -25 9 -14 25 -25 35 -25 11 0 19 -6 19 -14 0 -7
6 -19 14 -25 11 -10 13 -4 9 36 -3 27 -9 52 -14 58 -5 5 -9 26 -9 48 0 23 -4
36 -10 32 -6 -4 -10 8 -10 29 0 20 -4 36 -10 36 -5 0 -10 18 -10 40 0 22 -4
40 -10 40 -5 0 -10 10 -10 22 0 12 -2 19 -5 16 -6 -6 20 -162 37 -215 13 -44
1 -60 -23 -34 -11 12 -26 21 -35 21 -8 0 -17 7 -20 15 -4 8 -14 15 -23 15 -10
0 -27 9 -39 20 -12 11 -26 20 -32 20 -15 0 -13 9 10 37 11 14 20 34 20 44 0
18 -1 18 -20 -1 -11 -11 -20 -24 -20 -30 0 -5 -7 -10 -15 -10 -8 0 -15 4 -15
8 0 4 -21 14 -47 22 -27 7 -54 22 -61 32 -14 19 -32 24 -32 9 0 -5 7 -16 15
-24 8 -8 12 -17 9 -20 -7 -6 -54 16 -54 26 0 4 -5 7 -11 7 -6 0 -17 7 -25 15
-9 8 -12 15 -8 15 4 0 -3 8 -14 19 -27 22 -28 41 -4 42 11 0 13 2 4 6 -20 8
-182 171 -182 183 0 6 -7 10 -15 10 -8 0 -15 4 -15 8 0 20 -39 52 -64 52 -14
0 -26 -2 -26 -5z m177 -150 c8 -9 13 -19 10 -22 -6 -5 -37 21 -37 31 0 10 11
6 27 -9z"/>
<path d="M4704 2223 c1 -35 2 -58 4 -53 2 5 12 4 23 -3 20 -12 27 -57 9 -57
-5 0 -10 -9 -10 -20 0 -11 4 -20 9 -20 5 0 12 -18 16 -40 4 -22 12 -46 19 -53
29 -28 -2 -86 -46 -87 -10 0 -18 -4 -18 -10 0 -5 22 -10 49 -10 l49 0 12 -62
c7 -35 14 -76 17 -93 3 -16 12 -35 19 -42 6 -7 15 -31 19 -54 8 -47 29 -92 38
-82 4 3 7 -3 7 -15 0 -25 31 -82 45 -82 6 0 19 -20 30 -45 11 -25 25 -45 33
-45 7 0 11 4 7 9 -3 5 -1 12 5 16 5 3 10 -1 10 -10 0 -24 -24 -95 -32 -95 -5
0 -8 -9 -8 -20 0 -11 5 -20 10 -20 6 0 10 9 10 20 0 11 5 20 10 20 6 0 10 9
10 20 0 11 5 20 10 20 6 0 10 7 10 16 0 8 5 12 10 9 6 -4 10 7 10 24 0 17 5
31 10 31 13 0 13 100 0 120 -7 11 -10 5 -10 -23 0 -23 -4 -36 -10 -32 -6 4
-10 -6 -10 -24 0 -16 -4 -33 -10 -36 -6 -4 -10 12 -10 40 0 40 -13 80 -31 95
-3 3 -14 28 -24 55 -11 28 -22 52 -26 55 -8 6 -49 91 -49 102 0 5 -9 18 -20
30 -11 12 -20 30 -20 39 0 10 -9 21 -20 24 -18 6 -20 15 -20 80 0 46 4 77 12
81 7 5 4 10 -10 15 -12 5 -27 20 -32 34 -5 14 -14 25 -19 25 -5 0 -13 20 -17
45 -3 25 -10 45 -15 45 -5 0 -9 9 -9 19 0 10 -6 21 -14 24 -7 3 -18 23 -23 44
-9 36 -10 34 -9 -24z m187 -503 c5 0 9 -9 9 -20 0 -11 4 -20 8 -20 10 0 42
-65 42 -85 0 -8 6 -18 13 -22 13 -8 47 -76 47 -94 0 -6 7 -17 15 -25 18 -19
20 -44 2 -44 -7 0 -21 19 -31 43 -10 23 -21 44 -25 47 -13 9 -51 81 -51 96 0
8 -4 14 -10 14 -5 0 -10 10 -10 23 0 13 -4 27 -9 33 -5 5 -11 27 -14 49 -3 22
-3 32 -1 23 3 -10 10 -18 15 -18z"/>
<path d="M2071 2254 c0 -11 3 -14 6 -6 3 7 2 16 -1 19 -3 4 -6 -2 -5 -13z"/>
<path d="M4662 2240 c0 -14 2 -19 5 -12 2 6 2 18 0 25 -3 6 -5 1 -5 -13z"/>
<path d="M2091 2213 c-1 -25 -16 -31 -24 -10 -2 6 -8 8 -13 4 -5 -5 -1 -13 8
-18 10 -5 15 -16 12 -24 -4 -8 -1 -15 5 -15 6 0 11 5 11 12 0 6 9 1 20 -12 11
-13 20 -29 20 -37 0 -17 -27 -17 -33 0 -2 6 -2 -1 1 -18 2 -16 11 -34 18 -40
8 -5 16 -25 18 -43 2 -19 9 -39 15 -45 6 -6 11 -23 11 -37 0 -21 -7 -29 -35
-40 -43 -17 -45 -30 -5 -30 17 0 30 5 30 11 0 6 6 5 13 -3 16 -15 29 -57 47
-140 6 -32 16 -58 21 -58 5 0 9 -10 9 -21 0 -27 32 -119 42 -119 3 0 12 -17
19 -37 7 -21 25 -50 41 -64 15 -15 28 -32 28 -38 0 -6 7 -11 15 -11 8 0 12 -6
9 -14 -3 -8 -1 -17 5 -21 6 -3 12 -25 12 -48 1 -23 4 -32 6 -19 5 26 11 27 33
7 16 -14 17 -9 23 67 4 46 7 101 6 123 l-1 40 -10 -30 c-6 -16 -14 -32 -19
-35 -4 -3 -9 -18 -11 -34 -6 -53 -23 -39 -19 15 2 40 -1 57 -18 80 -12 15 -21
31 -21 34 0 13 -36 85 -42 85 -5 0 -8 9 -8 20 0 11 -4 20 -9 20 -5 0 -12 16
-15 36 -4 19 -14 38 -22 41 -7 3 -14 11 -14 19 0 8 -4 14 -10 14 -5 0 -10 9
-10 20 0 10 -9 24 -20 30 -19 10 -21 19 -18 91 3 69 1 82 -14 90 -10 5 -18 19
-18 29 0 11 -4 20 -10 20 -5 0 -10 9 -10 20 0 11 -4 20 -10 20 -5 0 -10 9 -10
20 0 24 -20 70 -31 70 -4 0 -10 10 -12 23 l-4 22 -2 -22z m179 -514 c0 -11 4
-19 9 -19 4 0 19 -25 32 -55 13 -30 27 -55 31 -55 5 0 8 -5 8 -12 0 -19 43
-108 52 -108 4 0 8 -12 8 -26 0 -34 -22 -27 -35 12 -5 16 -18 36 -27 45 -10 9
-18 24 -18 33 0 9 -4 16 -9 16 -8 0 -18 22 -26 60 -2 8 -9 16 -14 18 -6 2 -11
12 -11 22 0 9 -7 34 -15 53 -8 20 -15 42 -15 48 0 8 4 8 15 -1 8 -7 15 -21 15
-31z"/>
<path d="M5640 2220 c0 -5 5 -10 10 -10 6 0 10 5 10 10 0 6 -4 10 -10 10 -5 0
-10 -4 -10 -10z"/>
<path d="M4675 2210 c-3 -5 -1 -10 4 -10 6 0 11 5 11 10 0 6 -2 10 -4 10 -3 0
-8 -4 -11 -10z"/>
<path d="M5576 2195 c-11 -8 -16 -18 -11 -22 4 -5 10 -2 12 5 3 6 11 12 19 12
8 0 14 5 14 10 0 14 -11 12 -34 -5z"/>
<path d="M2780 2180 c0 -11 4 -20 9 -20 5 0 7 9 4 20 -3 11 -7 20 -9 20 -2 0
-4 -9 -4 -20z"/>
<path d="M157 2175 c-4 -8 -2 -17 3 -20 6 -4 10 3 10 14 0 25 -6 27 -13 6z"/>
<path d="M7520 2180 c0 -5 11 -10 25 -10 14 0 25 5 25 10 0 6 -11 10 -25 10
-14 0 -25 -4 -25 -10z"/>
<path d="M5496 2155 c-11 -8 -16 -18 -11 -22 4 -5 10 -2 12 5 3 6 11 12 19 12
8 0 14 5 14 10 0 14 -11 12 -34 -5z"/>
<path d="M7580 2160 c-13 -8 -12 -10 3 -10 12 0 17 -8 17 -30 0 -20 5 -30 15
-30 8 0 15 9 15 19 0 11 6 21 12 23 9 3 8 9 -4 21 -19 19 -36 21 -58 7z"/>
<path d="M4710 2119 c0 -5 5 -7 10 -4 6 3 10 8 10 11 0 2 -4 4 -10 4 -5 0 -10
-5 -10 -11z"/>
<path d="M3490 2080 c0 -5 5 -10 10 -10 6 0 10 5 10 10 0 6 -4 10 -10 10 -5 0
-10 -4 -10 -10z"/>
<path d="M870 2070 c0 -5 5 -10 10 -10 6 0 10 5 10 10 0 6 -4 10 -10 10 -5 0
-10 -4 -10 -10z"/>
<path d="M7577 2063 c-11 -10 -8 -61 3 -68 6 -4 10 10 10 34 0 42 -2 46 -13
34z"/>
<path d="M2821 2028 c-1 -21 4 -38 9 -38 6 0 10 -18 10 -40 0 -22 4 -40 9 -40
5 0 7 -9 4 -20 -4 -14 0 -20 11 -20 20 0 20 19 1 44 -8 11 -15 31 -16 45 0 14
-6 44 -14 66 l-13 40 -1 -37z"/>
<path d="M198 2025 c-4 -16 -2 -34 3 -39 5 -6 9 -27 9 -48 0 -21 5 -38 10 -38
6 0 10 -9 10 -20 0 -11 5 -20 10 -20 6 0 10 9 10 20 0 11 -4 20 -9 20 -5 0
-11 15 -15 33 -21 125 -21 124 -28 92z"/>
<path d="M3120 2041 c0 -10 50 -25 58 -16 3 3 -2 5 -11 5 -9 0 -17 5 -17 10 0
6 -7 10 -15 10 -8 0 -15 -4 -15 -9z"/>
<path d="M510 2025 c7 -8 20 -14 29 -14 13 1 13 2 -1 6 -10 2 -18 9 -18 14 0
5 -5 9 -11 9 -8 0 -8 -5 1 -15z"/>
<path d="M4280 1956 c0 -8 5 -18 10 -21 6 -3 10 3 10 14 0 12 -4 21 -10 21 -5
0 -10 -6 -10 -14z"/>
<path d="M1662 1940 c0 -14 2 -19 5 -12 2 6 2 18 0 25 -3 6 -5 1 -5 -13z"/>
<path d="M7550 1940 c0 -11 5 -20 10 -20 6 0 10 9 10 20 0 11 -4 20 -10 20 -5
0 -10 -9 -10 -20z"/>
<path d="M5820 1930 c0 -5 11 -10 25 -10 14 0 25 5 25 10 0 6 -11 10 -25 10
-14 0 -25 -4 -25 -10z"/>
<path d="M4300 1865 c0 -27 2 -46 4 -44 8 8 10 78 3 85 -4 4 -7 -14 -7 -41z"/>
<path d="M5768 1898 c9 -9 15 -9 24 0 9 9 7 12 -12 12 -19 0 -21 -3 -12 -12z"/>
<path d="M1670 1866 c0 -19 5 -38 10 -41 6 -4 10 10 10 34 0 23 -4 41 -10 41
-5 0 -10 -15 -10 -34z"/>
<path d="M2886 1765 c3 -44 10 -81 15 -83 5 -2 9 -17 9 -33 0 -16 5 -29 10
-29 6 0 10 -9 10 -20 0 -11 5 -20 11 -20 7 0 9 10 4 28 -3 15 -9 43 -12 62 -3
19 -9 37 -12 40 -4 3 -15 34 -24 70 l-17 65 6 -80z"/>
<path d="M250 1796 c0 -20 5 -36 10 -36 6 0 10 -13 10 -29 0 -62 13 -121 26
-121 8 0 14 -10 14 -22 0 -12 3 -19 6 -15 10 10 -7 106 -21 121 -7 7 -16 38
-20 69 -8 65 -25 87 -25 33z"/>
<path d="M4430 1697 c0 -13 -4 -27 -10 -33 -5 -5 -13 -45 -16 -87 -5 -55 -11
-77 -20 -77 -16 0 -19 -46 -5 -54 12 -8 31 48 31 89 0 17 3 35 8 39 8 8 9 14
11 52 0 14 5 22 11 19 6 -4 10 10 10 34 0 23 -4 41 -10 41 -5 0 -10 -10 -10
-23z"/>
<path d="M7328 1713 c6 -2 18 -2 25 0 6 3 1 5 -13 5 -14 0 -19 -2 -12 -5z"/>
<path d="M900 1660 c20 -13 33 -13 25 0 -3 6 -14 10 -23 10 -15 0 -15 -2 -2
-10z"/>
<path d="M1715 1651 c-3 -5 -1 -12 5 -16 5 -3 10 1 10 9 0 18 -6 21 -15 7z"/>
<path d="M4342 1640 c0 -14 2 -19 5 -12 2 6 2 18 0 25 -3 6 -5 1 -5 -13z"/>
<path d="M2502 1610 c0 -14 2 -19 5 -12 2 6 2 18 0 25 -3 6 -5 1 -5 -13z"/>
<path d="M5125 1610 c3 -5 8 -10 11 -10 2 0 4 5 4 10 0 6 -5 10 -11 10 -5 0
-7 -4 -4 -10z"/>
<path d="M995 1524 c11 -9 28 -20 38 -25 16 -9 17 -8 8 9 -10 20 -32 32 -54
32 -7 0 -3 -8 8 -16z"/>
<path d="M1007 1459 c13 -21 19 -26 21 -15 2 9 -3 23 -12 31 -24 24 -28 17 -9
-16z"/>
<path d="M3012 1330 c0 -14 2 -19 5 -12 2 6 2 18 0 25 -3 6 -5 1 -5 -13z"/>
<path d="M380 1319 c0 -11 4 -18 10 -14 5 3 7 12 3 20 -7 21 -13 19 -13 -6z"/>
<path d="M1110 1325 c0 -8 -9 -30 -20 -50 -23 -42 -25 -55 -7 -55 7 0 21 16
30 35 19 39 22 85 7 85 -5 0 -10 -7 -10 -15z"/>
<path d="M1353 1323 c-9 -23 18 -67 43 -71 12 -2 27 4 34 14 12 14 12 18 -3
29 -9 7 -17 18 -17 24 0 7 -4 9 -10 6 -5 -3 -10 -1 -10 4 0 17 -30 13 -37 -6z"/>
<path d="M2492 1270 c-14 -45 -3 -78 37 -114 12 -11 21 -30 21 -43 0 -16 6
-23 20 -23 11 0 33 -14 48 -30 15 -17 49 -54 76 -83 26 -29 59 -76 72 -104 19
-44 27 -53 48 -53 71 0 2 119 -180 311 -19 21 -34 42 -34 48 0 5 -9 15 -20 21
-11 6 -31 33 -45 60 -14 28 -26 50 -28 50 -1 0 -8 -18 -15 -40z"/>
<path d="M402 1250 c0 -19 2 -27 5 -17 2 9 2 25 0 35 -3 9 -5 1 -5 -18z"/>
<path d="M3020 1250 c0 -11 5 -20 10 -20 6 0 10 9 10 20 0 11 -4 20 -10 20 -5
0 -10 -9 -10 -20z"/>
<path d="M1020 1239 c0 -18 2 -19 15 -9 8 7 15 16 15 21 0 5 -7 9 -15 9 -9 0
-15 -9 -15 -21z"/>
<path d="M1460 1235 c0 -8 6 -15 14 -15 8 0 23 -3 33 -7 13 -4 12 -1 -6 15
-28 26 -41 28 -41 7z"/>
<path d="M6842 1235 c-4 -7 -14 -14 -22 -16 -13 -4 -14 -35 -10 -234 l6 -230
2 228 2 228 196 -1 c159 -1 196 -4 201 -16 7 -19 23 -18 23 1 0 12 9 15 35 13
26 -1 35 -7 35 -20 0 -10 -6 -17 -12 -16 -8 2 -14 -9 -16 -24 -2 -16 -8 -28
-13 -28 -5 0 -9 -9 -9 -19 0 -11 -4 -23 -10 -26 -5 -3 -10 -19 -10 -36 0 -16
-4 -29 -10 -29 -5 0 -10 -9 -10 -20 0 -11 -7 -20 -15 -20 -9 0 -18 -12 -21
-30 -4 -16 -10 -30 -15 -30 -5 0 -9 -9 -9 -20 0 -11 -7 -20 -15 -20 -8 0 -15
-4 -15 -10 0 -5 -7 -10 -15 -10 -8 0 -15 -7 -15 -15 0 -9 -10 -15 -26 -15 -14
0 -23 4 -19 9 6 11 -33 36 -43 27 -3 -3 0 -6 6 -6 7 0 12 -6 12 -13 0 -8 11
-20 25 -27 20 -11 25 -21 25 -52 0 -21 5 -38 10 -38 6 0 10 -10 10 -22 0 -34
11 -68 21 -68 5 0 9 18 9 39 0 52 8 71 30 71 11 0 22 5 25 10 3 6 -1 10 -9 10
-12 0 -16 11 -16 45 0 25 4 45 9 45 5 0 13 9 16 20 4 11 11 18 16 15 5 -3 12
12 15 35 4 22 10 40 15 40 5 0 9 9 9 20 0 20 18 60 32 70 3 3 8 19 10 35 2 17
8 29 16 27 6 -1 12 7 12 18 0 11 7 23 15 26 8 4 15 17 15 30 l0 24 215 0 c206
0 215 1 215 19 0 19 -11 20 -460 19 -354 -1 -462 -4 -468 -13z"/>
<path d="M2374 1216 c-3 -14 -4 -33 -1 -43 3 -10 5 -4 6 15 1 22 6 32 17 32 8
0 12 5 9 10 -11 17 -24 11 -31 -14z"/>
<path d="M1426 1208 c3 -13 13 -27 20 -31 8 -4 14 -15 14 -22 0 -8 7 -15 15
-15 8 0 15 -4 15 -9 0 -13 96 -111 108 -111 6 0 8 9 5 20 -3 12 0 20 6 20 7 0
21 -9 33 -20 12 -11 28 -20 35 -20 8 0 12 -4 8 -9 -3 -6 3 -15 12 -21 15 -9
10 -10 -22 -6 -22 2 -32 2 -22 0 9 -3 17 -10 17 -15 0 -5 9 -9 20 -9 11 0 20
-4 20 -10 0 -5 7 -10 15 -10 8 0 15 -4 15 -10 0 -5 6 -10 14 -10 8 0 21 -6 28
-14 8 -7 24 -17 36 -20 13 -4 33 -18 45 -30 25 -25 77 -43 77 -26 0 5 -4 10
-10 10 -5 0 -20 11 -34 25 -14 14 -32 25 -41 25 -9 0 -14 4 -11 8 2 4 -7 17
-21 27 -42 33 -163 156 -163 166 0 5 -5 9 -11 9 -13 0 -49 38 -49 52 0 4 -6 8
-13 8 -7 0 -19 9 -27 20 -15 21 -40 27 -40 10 0 -5 7 -10 15 -10 9 0 19 -8 22
-17 4 -10 16 -26 26 -36 11 -9 17 -20 12 -25 -4 -4 -10 -1 -12 6 -3 6 -14 12
-24 12 -11 0 -17 5 -14 10 3 6 -1 10 -9 10 -9 0 -16 4 -16 8 0 5 -11 14 -24
21 -13 7 -30 24 -37 37 -16 32 -43 33 -33 2z"/>
<path d="M1366 1189 c-3 -17 -5 -46 -5 -63 1 -23 3 -25 6 -8 5 27 23 29 23 2
0 -11 5 -20 10 -20 6 0 10 16 10 36 0 21 -4 33 -10 29 -6 -4 -10 7 -10 24 0
40 -16 40 -24 0z"/>
<path d="M3040 1186 c0 -20 5 -36 10 -36 6 0 10 13 10 29 0 17 -4 33 -10 36
-6 4 -10 -8 -10 -29z"/>
<path d="M4997 1200 c-3 -11 -1 -23 4 -26 5 -3 9 6 9 20 0 31 -6 34 -13 6z"/>
<path d="M418 1204 c-15 -14 -9 -64 7 -64 10 0 16 -11 16 -32 2 -27 3 -28 6
-8 4 31 -19 115 -29 104z"/>
<path d="M1114 1174 c-4 -11 -24 -41 -45 -67 -21 -27 -41 -65 -45 -85 -4 -21
-10 -39 -13 -42 -14 -12 -31 -51 -31 -73 0 -13 -9 -33 -20 -45 -20 -21 -26
-42 -12 -42 15 0 30 16 35 35 4 18 5 18 6 -2 2 -44 26 -23 46 40 10 34 22 64
25 67 6 5 25 83 35 143 5 33 9 37 35 37 35 0 38 10 10 35 -19 17 -20 17 -26
-1z"/>
<path d="M7183 1160 c-3 -11 -9 -20 -14 -20 -5 0 -9 -15 -9 -32 0 -25 -3 -29
-10 -18 -7 11 -10 0 -10 -37 0 -29 5 -53 10 -53 6 0 10 17 10 38 0 27 3 33 10
22 7 -11 10 -2 10 33 0 33 4 47 14 47 15 0 28 24 19 34 -12 12 -25 6 -30 -14z"/>
<path d="M4982 1145 c0 -16 2 -22 5 -12 2 9 2 23 0 30 -3 6 -5 -1 -5 -18z"/>
<path d="M3066 1126 c-4 -17 -3 -33 3 -39 6 -6 11 -30 11 -53 0 -24 5 -46 10
-49 6 -3 10 -24 10 -46 0 -21 5 -39 10 -39 6 0 10 -18 10 -41 0 -28 4 -39 13
-36 6 2 12 13 11 23 -2 38 -29 149 -37 155 -5 3 -14 39 -21 80 -11 63 -14 70
-20 45z"/>
<path d="M3795 1140 c-3 -5 -1 -10 4 -10 6 0 11 5 11 10 0 6 -2 10 -4 10 -3 0
-8 -4 -11 -10z"/>
<path d="M1170 1130 c0 -5 5 -10 11 -10 5 0 7 5 4 10 -3 6 -8 10 -11 10 -2 0
-4 -4 -4 -10z"/>
<path d="M2350 1130 c0 -5 5 -10 10 -10 6 0 10 5 10 10 0 6 -4 10 -10 10 -5 0
-10 -4 -10 -10z"/>
<path d="M1331 1051 c-6 -29 -11 -63 -11 -76 0 -13 -4 -27 -10 -30 -5 -3 -10
-23 -10 -43 0 -55 22 -25 28 38 3 31 10 54 18 57 16 6 19 70 5 92 -6 9 -12 -2
-20 -38z"/>
<path d="M4041 1033 c-1 -24 4 -43 9 -43 12 0 12 37 0 65 -7 15 -9 10 -9 -22z"/>
<path d="M5640 1060 c0 -5 -7 -10 -15 -10 -8 0 -15 -4 -15 -10 0 -15 19 -12
36 4 16 17 18 26 4 26 -5 0 -10 -4 -10 -10z"/>
<path d="M450 1020 c0 -22 5 -40 10 -40 6 0 10 -20 10 -45 0 -25 5 -45 10 -45
6 0 10 -13 10 -29 0 -27 15 -49 26 -39 2 3 -1 27 -6 54 -6 27 -13 66 -17 86
-3 21 -9 35 -14 32 -5 -3 -9 11 -9 30 0 20 -4 36 -10 36 -5 0 -10 -18 -10 -40z"/>
<path d="M1417 1026 c-5 -21 -6 -41 -3 -44 12 -11 17 7 14 44 l-3 39 -8 -39z"/>
<path d="M5555 1000 c-4 -6 -11 -8 -16 -5 -5 4 -9 -1 -9 -9 0 -9 -7 -16 -16
-16 -8 0 -13 -4 -10 -9 8 -12 56 10 56 26 0 6 6 14 13 16 9 4 9 6 0 6 -6 1
-15 -4 -18 -9z"/>
<path d="M2297 953 c-3 -16 -1 -32 4 -37 5 -6 9 4 9 27 0 44 -6 48 -13 10z"/>
<path d="M4920 953 c0 -17 -6 -33 -12 -36 -7 -2 -10 -8 -6 -12 9 -9 38 19 38
37 0 7 -5 20 -10 28 -7 11 -10 7 -10 -17z"/>
<path d="M7108 925 c-4 -51 0 -68 13 -59 12 7 12 104 0 104 -5 0 -11 -20 -13
-45z"/>
<path d="M4062 940 c0 -14 2 -19 5 -12 2 6 2 18 0 25 -3 6 -5 1 -5 -13z"/>
<path d="M5480 935 c0 -8 -7 -15 -15 -15 -8 0 -15 -9 -15 -20 0 -11 3 -20 6
-20 12 0 63 58 57 64 -12 12 -33 6 -33 -9z"/>
<path d="M2275 900 c3 -5 8 -10 11 -10 2 0 4 5 4 10 0 6 -5 10 -11 10 -5 0 -7
-4 -4 -10z"/>
<path d="M2604 856 c-11 -17 -27 -26 -52 -29 -20 -2 -3 -4 38 -5 41 0 69 2 63
5 -7 2 -13 16 -13 29 0 31 -15 31 -36 0z"/>
<path d="M3906 844 c-10 -27 -7 -44 9 -44 9 0 15 9 15 24 0 30 -15 42 -24 20z"/>
<path d="M1280 840 c0 -5 5 -10 10 -10 6 0 10 5 10 10 0 6 -4 10 -10 10 -5 0
-10 -4 -10 -10z"/>
<path d="M1670 840 c0 -5 5 -10 10 -10 6 0 10 5 10 10 0 6 -4 10 -10 10 -5 0
-10 -4 -10 -10z"/>
<path d="M4077 826 c-4 -10 -5 -21 -2 -24 9 -9 17 6 13 25 -3 17 -4 17 -11 -1z"/>
<path d="M3892 750 c0 -19 2 -27 5 -17 2 9 2 25 0 35 -3 9 -5 1 -5 -18z"/>
<path d="M6390 730 c0 -6 77 -10 210 -10 133 0 210 4 210 10 0 6 -77 10 -210
10 -133 0 -210 -4 -210 -10z"/>
<path d="M3870 684 c0 -8 5 -12 10 -9 6 4 8 11 5 16 -9 14 -15 11 -15 -7z"/>
<path d="M530 648 c0 -14 7 -29 16 -32 12 -5 14 -1 9 17 -11 35 -25 44 -25 15z"/>
<path d="M1435 650 c-3 -11 -12 -20 -18 -20 -8 0 -7 -4 2 -9 18 -12 41 -3 41
15 0 8 7 14 15 14 8 0 15 5 15 10 0 19 -48 11 -55 -10z"/>
<path d="M2820 659 c0 -5 5 -7 10 -4 6 3 10 8 10 11 0 2 -4 4 -10 4 -5 0 -10
-5 -10 -11z"/>
<path d="M4117 647 c-10 -27 -9 -105 3 -112 6 -3 10 -19 10 -36 0 -16 5 -29
11 -29 7 0 8 11 3 33 -4 17 -10 61 -13 97 -4 43 -9 59 -14 47z"/>
<path d="M7060 630 c0 -18 4 -29 10 -25 6 3 10 15 10 25 0 10 -4 22 -10 25 -6
4 -10 -7 -10 -25z"/>
<path d="M894 619 c-3 -5 2 -9 10 -9 9 0 16 -9 16 -20 0 -11 4 -20 9 -20 5 0
11 9 14 20 7 27 25 26 29 -2 5 -35 28 -34 28 1 0 17 -3 32 -7 32 -38 7 -94 5
-99 -2z"/>
<path d="M1020 609 c-13 -24 -7 -49 13 -49 10 0 13 8 9 25 -3 18 0 25 11 25
23 0 31 -18 16 -37 -11 -13 -11 -15 6 -12 11 3 21 12 23 22 9 44 -57 66 -78
26z"/>
<path d="M1120 600 c0 -36 11 -39 26 -6 9 20 9 26 -3 30 -22 9 -23 8 -23 -24z"/>
<path d="M1230 622 c0 -6 6 -13 13 -15 7 -3 5 -6 -5 -6 -28 -1 -21 -21 8 -21
21 0 25 4 22 22 -3 22 -38 40 -38 20z"/>
<path d="M1332 618 c-6 -6 -12 -19 -12 -27 0 -11 4 -11 19 3 13 12 27 15 41
11 16 -5 21 -3 18 6 -6 18 -50 23 -66 7z"/>
<path d="M2100 620 c0 -5 9 -10 21 -10 11 0 17 5 14 10 -3 6 -13 10 -21 10 -8
0 -14 -4 -14 -10z"/>
<path d="M2860 618 c0 -6 3 -8 7 -5 3 4 17 -3 30 -15 27 -25 40 -19 23 11 -11
22 -60 30 -60 9z"/>
<path d="M2940 596 c0 -19 5 -38 11 -41 14 -9 17 -5 21 35 2 27 -1 35 -14 38
-14 3 -18 -4 -18 -32z"/>
<path d="M3201 607 c-1 -12 8 -21 22 -25 20 -6 20 -7 -8 -12 l-30 -6 23 -13
c18 -10 26 -10 38 0 20 17 17 28 -10 35 -14 3 -27 13 -29 22 -4 14 -5 14 -6
-1z"/>
<path d="M571 595 c-1 -12 4 -26 11 -33 14 -14 58 -16 58 -2 0 5 -6 7 -12 5
-15 -5 -42 14 -51 35 -4 11 -6 9 -6 -5z"/>
<path d="M1190 596 c0 -9 5 -16 10 -16 6 0 10 4 10 9 0 6 -4 13 -10 16 -5 3
-10 -1 -10 -9z"/>
<path d="M2185 601 c-3 -5 -1 -12 5 -16 5 -3 10 1 10 9 0 18 -6 21 -15 7z"/>
<path d="M7083 594 c-3 -8 -1 -20 6 -27 8 -8 11 -4 11 16 0 30 -7 35 -17 11z"/>
<path d="M2140 590 c0 -5 5 -10 10 -10 6 0 10 5 10 10 0 6 -4 10 -10 10 -5 0
-10 -4 -10 -10z"/>
<path d="M875 577 c-4 -10 -5 -21 -1 -24 10 -10 18 4 13 24 -4 17 -4 17 -12 0z"/>
<path d="M3310 580 c12 -8 11 -10 -7 -10 -13 0 -23 -5 -23 -11 0 -6 12 -9 27
-7 36 4 46 38 11 38 -18 0 -20 -2 -8 -10z"/>
<path d="M530 565 c-10 -12 -10 -15 4 -15 9 0 16 7 16 15 0 8 -2 15 -4 15 -2
0 -9 -7 -16 -15z"/>
<path d="M676 566 c7 -17 64 -23 64 -6 0 6 -6 10 -12 10 -7 0 -23 3 -36 6 -18
5 -21 3 -16 -10z"/>
<path d="M770 565 c0 -8 5 -15 10 -15 6 0 10 7 10 15 0 8 -4 15 -10 15 -5 0
-10 -7 -10 -15z"/>
<path d="M3056 565 c-3 -9 0 -15 9 -15 8 0 15 7 15 15 0 8 -4 15 -9 15 -5 0
-11 -7 -15 -15z"/>
<path d="M3110 559 c0 -11 28 -19 45 -13 25 10 17 21 -15 21 -16 0 -30 -4 -30
-8z"/>
<path d="M3360 560 c0 -5 4 -10 9 -10 6 0 13 5 16 10 3 6 -1 10 -9 10 -9 0
-16 -4 -16 -10z"/>
<path d="M7036 553 c-3 -3 -6 -21 -6 -40 0 -18 -4 -33 -10 -33 -5 0 -10 -8
-10 -17 0 -10 -7 -31 -15 -47 -10 -18 -13 -41 -9 -62 5 -29 8 -32 25 -21 13 8
15 13 6 19 -9 6 -9 8 1 8 7 0 12 13 12 30 0 17 5 30 10 30 6 0 10 8 10 18 0 9
7 30 15 46 19 36 19 46 -1 46 -8 0 -13 4 -9 9 6 11 -9 23 -19 14z"/>
<path d="M3630 465 c0 -26 18 -38 46 -29 l29 8 -30 4 c-16 2 -33 9 -37 15 -4
7 -8 8 -8 2z"/>
<path d="M3816 431 c-8 -43 -8 -43 -45 -37 -20 3 -41 12 -47 21 -12 16 -44 21
-44 7 0 -9 44 -32 60 -32 15 0 50 -38 50 -53 0 -7 -5 -18 -12 -25 -9 -9 -9
-15 0 -24 9 -9 12 -9 12 1 0 7 7 19 15 28 14 13 20 12 58 -10 23 -14 51 -35
62 -47 11 -12 43 -33 72 -45 28 -13 72 -42 97 -65 25 -23 51 -43 58 -44 8 -1
31 -12 51 -24 21 -12 42 -22 48 -22 5 0 9 -4 9 -10 0 -5 11 -10 24 -10 14 0
28 -5 31 -10 8 -13 55 -13 55 0 0 6 -17 18 -37 26 -21 9 -45 20 -53 25 -8 5
-40 21 -70 36 -30 15 -74 44 -98 66 -24 21 -65 48 -90 59 -26 12 -64 36 -84
54 -20 18 -57 42 -83 54 -44 20 -56 35 -34 42 6 2 9 21 7 43 l-3 40 -9 -44z"/>
<path d="M4150 411 c0 -28 5 -51 10 -51 6 0 10 -27 10 -60 0 -33 4 -60 9 -60
17 0 18 14 5 75 -7 33 -13 77 -13 97 -1 20 -5 40 -11 43 -6 4 -10 -13 -10 -44z"/>
<path d="M5568 453 c7 -3 16 -2 19 1 4 3 -2 6 -13 5 -11 0 -14 -3 -6 -6z"/>
<path d="M7592 443 c-6 -3 -10 -8 -8 -12 3 -4 -17 -13 -44 -20 -28 -7 -50 -17
-50 -22 0 -18 71 -9 92 11 12 11 28 20 35 20 7 0 13 4 13 9 0 11 -21 19 -38
14z"/>
<path d="M5610 430 c0 -5 7 -10 15 -10 8 0 15 5 15 10 0 6 -7 10 -15 10 -8 0
-15 -4 -15 -10z"/>
<path d="M0 360 c0 -17 3 -18 25 -8 14 6 25 15 25 20 0 4 -11 8 -25 8 -18 0
-25 -5 -25 -20z"/>
<path d="M802 360 c-6 -11 -12 -26 -12 -33 0 -7 -11 -24 -25 -37 -14 -13 -25
-31 -25 -40 0 -23 -43 -130 -78 -195 -30 -55 -30 -55 -8 -55 19 0 29 14 58 78
20 42 44 100 54 127 10 28 24 56 31 63 7 7 13 22 13 33 0 10 5 19 10 19 6 0
10 9 10 20 0 11 6 20 13 20 8 0 7 4 -3 10 -21 13 -24 13 -38 -10z"/>
<path d="M890 374 c0 -19 33 -114 39 -114 7 0 22 -35 82 -197 17 -45 29 -63
41 -63 22 0 22 1 2 48 -9 20 -23 60 -31 87 -18 60 -63 159 -75 163 -4 2 -8 9
-8 16 0 22 -25 66 -37 66 -7 0 -13 -3 -13 -6z"/>
<path d="M1140 370 c-13 -8 -12 -10 4 -10 16 0 18 -6 13 -42 -3 -24 -4 -37 -1
-30 3 6 12 12 19 12 7 0 15 8 17 17 2 13 15 5 53 -34 28 -28 93 -84 145 -126
52 -41 113 -93 135 -116 27 -29 47 -41 67 -41 26 0 23 4 -47 72 -42 39 -108
96 -148 126 -39 30 -92 75 -117 101 -75 78 -106 93 -140 71z"/>
<path d="M1520 370 c0 -5 5 -10 10 -10 6 0 10 5 10 10 0 6 -4 10 -10 10 -5 0
-10 -4 -10 -10z"/>
<path d="M3251 364 c0 -11 3 -14 6 -6 3 7 2 16 -1 19 -3 4 -6 -2 -5 -13z"/>
<path d="M3432 368 c-7 -7 -12 -17 -12 -23 0 -15 -24 -65 -31 -65 -3 0 -4 -12
-2 -27 4 -22 -5 -38 -41 -77 -26 -27 -50 -65 -56 -86 -6 -21 -17 -43 -25 -50
-18 -15 -20 -40 -2 -39 16 0 52 48 60 79 3 14 29 50 56 80 46 49 51 60 51 101
0 29 6 51 15 59 16 13 21 60 7 60 -4 0 -13 -5 -20 -12z"/>
<path d="M3527 348 c3 -18 12 -48 19 -67 8 -18 14 -42 14 -53 0 -10 7 -32 15
-48 9 -16 18 -51 21 -77 8 -66 25 -103 48 -103 13 0 16 4 11 18 -14 32 -24 67
-35 122 -21 105 -35 159 -44 167 -4 4 -14 23 -21 41 -8 17 -19 32 -24 32 -6 0
-8 -13 -4 -32z"/>
<path d="M620 355 c0 -8 5 -15 10 -15 6 0 10 7 10 15 0 8 -4 15 -10 15 -5 0
-10 -7 -10 -15z"/>
<path d="M2100 351 c0 -11 -3 -28 -7 -38 -6 -17 -6 -17 10 -1 18 18 23 58 7
58 -5 0 -10 -9 -10 -19z"/>
<path d="M7433 363 c-7 -2 -13 -11 -13 -18 0 -7 -15 -15 -32 -18 -37 -5 -100
-28 -108 -39 -10 -13 -77 -37 -84 -31 -3 4 -6 1 -6 -5 0 -7 4 -12 9 -12 5 0
16 -3 25 -6 11 -4 16 -1 16 10 0 9 8 16 20 16 11 0 20 5 20 10 0 6 18 10 39
10 22 0 41 3 43 8 6 13 65 42 87 42 14 0 21 6 21 20 0 19 -12 24 -37 13z"/>
<path d="M1546 308 c-9 -50 -2 -88 13 -72 4 5 5 34 1 64 l-6 55 -8 -47z"/>
<path d="M3268 295 c-4 -17 -1 -25 8 -25 8 0 14 9 14 19 0 30 -17 34 -22 6z"/>
<path d="M647 303 c-11 -10 -8 -43 3 -43 6 0 10 11 10 25 0 26 -2 29 -13 18z"/>
<path d="M6975 282 c-11 -9 -21 -24 -22 -32 -1 -8 -6 -28 -11 -45 -6 -16 -18
-57 -28 -90 -10 -33 -27 -71 -37 -85 l-19 -25 32 -3 c54 -6 58 1 122 231 9 31
8 41 -3 52 -12 12 -17 11 -34 -3z"/>
<path d="M5970 250 c0 -5 7 -10 15 -10 8 0 15 -7 15 -15 0 -13 47 -15 360 -15
233 0 360 4 360 10 0 6 -73 10 -197 11 -297 0 -518 9 -521 20 -5 12 -32 12
-32 -1z"/>
</g>
</svg>
